<?xml version="1.0" encoding="UTF-8"?>
<svg xmlns="http://www.w3.org/2000/svg" xmlns:xlink="http://www.w3.org/1999/xlink" version="1.1" viewBox="0 0 788.9 432">
  <defs>
    <style>
      .cls-1, .cls-2, .cls-3, .cls-4, .cls-5, .cls-6 {
        fill: none;
      }

      .cls-7, .cls-8, .cls-2, .cls-9, .cls-10, .cls-3, .cls-11, .cls-4, .cls-5, .cls-12, .cls-13, .cls-14, .cls-15 {
        stroke-width: 1.1px;
      }

      .cls-7, .cls-8, .cls-10, .cls-11, .cls-5, .cls-13, .cls-14 {
        stroke: #333;
      }

      .cls-7, .cls-10, .cls-15 {
        fill: #d95f02;
      }

      .cls-7, .cls-3, .cls-4, .cls-5, .cls-13, .cls-14 {
        stroke-linejoin: round;
      }

      .cls-16 {
        font-size: 11px;
      }

      .cls-16, .cls-17, .cls-18 {
        font-family: ArialMT, Arial;
        isolation: isolate;
      }

      .cls-8, .cls-2, .cls-9, .cls-10, .cls-11, .cls-12, .cls-6, .cls-15 {
        stroke-miterlimit: 10;
      }

      .cls-8, .cls-12, .cls-14 {
        fill: #7570b3;
      }

      .cls-2, .cls-9, .cls-3, .cls-12, .cls-6, .cls-15 {
        stroke: #bebebe;
      }

      .cls-9, .cls-11, .cls-13 {
        fill: #1b9e77;
      }

      .cls-9, .cls-12, .cls-15 {
        fill-opacity: .2;
      }

      .cls-19 {
        font-family: MyriadPro-Regular, 'Myriad Pro';
        font-size: 24px;
      }

      .cls-4 {
        stroke: #000;
      }

      .cls-20 {
        clip-path: url(#clippath-1);
      }

      .cls-21 {
        clip-path: url(#clippath-4);
      }

      .cls-22 {
        clip-path: url(#clippath-2);
      }

      .cls-23 {
        clip-path: url(#clippath-5);
      }

      .cls-24 {
        fill: #fff;
      }

      .cls-17 {
        fill: #4d4d4d;
      }

      .cls-17, .cls-18 {
        font-size: 8.8px;
      }

      .cls-6 {
        stroke-width: 2.1px;
      }
    </style>
    <clipPath id="clippath-1">
      <rect class="cls-1" x="58.7" y="23.3" width="304.3" height="376.9"/>
    </clipPath>
    <clipPath id="clippath-2">
      <rect class="cls-1" x="10.5" y="0" width="432" height="432"/>
    </clipPath>
    <clipPath id="clippath-4">
      <rect class="cls-1" x="482.3" y="21.3" width="304.3" height="376.9"/>
    </clipPath>
    <clipPath id="clippath-5">
      <polygon class="cls-1" points="434.1 -2.1 763.3 -1.1 763.3 430.9 434.1 429.9 434.1 -2.1"/>
    </clipPath>
  </defs>
  <!-- Generator: Adobe Illustrator 28.6.0, SVG Export Plug-In . SVG Version: 1.2.0 Build 709)  -->
  <g>
    <g id="Layer_1">
      <g>
        <g class="cls-20">
          <g>
            <rect class="cls-24" x="58.7" y="23.3" width="304.3" height="376.9"/>
            <polygon class="cls-13" points="109.1 383.1 109.3 382.5 109.7 381.8 110.3 381.1 111.1 380.5 111.9 379.8 112.7 379.1 113.4 378.4 114.1 377.8 114.6 377.1 115 376.4 115.3 375.8 115.4 375.1 115.6 374.4 115.6 373.7 115.7 373.1 115.7 372.4 115.7 371.7 115.7 371.1 115.7 370.4 115.7 369.7 115.7 369 115.7 368.4 115.7 367.7 115.7 367 115.7 366.4 115.7 365.7 115.7 365 115.7 364.4 115.7 363.7 115.7 363 115.7 362.4 115.7 361.7 115.7 361 115.7 360.3 115.7 359.7 115.7 359 115.7 358.3 115.7 357.6 115.7 357 115.7 356.3 115.7 355.6 115.7 355 115.7 354.3 115.7 353.6 115.7 353 115.7 352.3 115.7 351.6 115.7 351 115.7 350.3 115.7 349.6 115.7 348.9 115.7 348.3 115.7 347.6 115.7 346.9 115.7 346.3 115.7 345.6 115.7 344.9 115.7 344.2 115.7 343.6 115.7 342.9 115.7 342.2 115.7 341.6 115.7 340.9 115.7 340.2 115.7 339.5 115.7 338.9 115.7 338.2 115.7 337.5 115.7 336.9 115.7 336.2 115.7 335.5 115.7 334.9 115.7 334.2 115.7 333.5 115.7 332.8 115.7 332.2 115.7 331.5 115.7 330.8 115.7 330.2 115.7 329.5 115.7 328.8 115.7 328.1 115.7 327.5 115.7 326.8 115.7 326.1 115.7 325.5 115.7 324.8 115.7 324.1 115.7 323.5 115.7 322.8 115.7 322.1 115.7 321.4 115.7 320.8 115.7 320.1 115.7 319.4 115.7 318.8 115.7 318.1 115.7 317.4 115.7 316.8 115.7 316.1 115.7 315.4 115.7 314.7 115.7 314.1 115.7 313.4 115.7 312.7 115.7 312 115.7 311.4 115.7 310.7 115.7 310 115.7 309.4 115.7 308.7 115.7 308 115.7 307.4 115.7 306.7 115.7 306 115.7 305.4 115.7 304.7 115.7 304 115.7 303.3 115.7 302.7 115.7 302 115.7 301.3 115.7 300.6 115.7 300 115.7 299.3 115.7 298.6 115.7 298 115.7 297.3 115.7 296.6 115.7 296 115.7 295.3 115.7 294.6 115.7 294 115.7 293.3 115.7 292.6 115.7 291.9 115.7 291.3 115.7 290.6 115.7 289.9 115.7 289.3 115.7 288.6 115.7 287.9 115.7 287.2 115.7 286.6 115.7 285.9 115.7 285.2 115.7 284.6 115.7 283.9 115.7 283.2 115.7 282.5 115.7 281.9 115.7 281.2 115.7 280.5 115.7 279.9 115.7 279.2 115.7 278.5 115.7 277.9 115.7 277.2 115.7 276.5 115.7 275.8 115.7 275.2 115.7 274.5 115.7 273.8 115.7 273.2 115.7 272.5 115.7 271.8 115.7 271.1 115.7 270.5 115.7 269.8 115.7 269.1 115.7 268.5 115.7 267.8 115.7 267.1 115.7 266.5 115.7 265.8 115.7 265.1 115.7 264.4 115.7 263.8 115.7 263.1 115.7 262.4 115.7 261.8 115.7 261.1 115.7 260.4 115.7 259.8 115.7 259.1 115.7 258.4 115.7 257.7 115.7 257.1 115.7 256.4 115.7 255.7 115.7 255.1 115.7 254.4 115.7 253.7 115.7 253 115.7 252.4 115.7 251.7 115.7 251 115.7 250.4 115.7 249.7 115.7 249 115.7 248.4 115.7 247.7 115.7 247 115.7 246.3 115.7 245.7 115.7 245 115.7 244.3 115.7 243.6 115.7 243 115.7 242.3 115.7 241.6 115.7 241 115.7 240.3 115.7 239.6 115.7 239 115.7 238.3 115.7 237.6 115.7 236.9 115.7 236.3 115.7 235.6 115.7 234.9 115.7 234.3 115.7 233.6 115.6 232.9 115.6 232.3 115.5 231.6 115.5 230.9 115.4 230.2 115.4 229.6 115.3 228.9 115.3 228.2 115.2 227.6 115.2 226.9 115.2 226.2 115.1 225.6 115.1 224.9 115.1 224.2 115.1 223.5 115.1 222.9 115.1 222.2 115.1 221.5 115.1 220.9 115.1 220.2 115.1 219.5 115.1 218.8 115.1 218.2 115 217.5 115.1 216.8 115.1 216.2 115.1 215.5 115.2 214.8 115.2 214.1 115.3 213.5 115.3 212.8 115.4 212.1 115.4 211.5 115.4 210.8 115.4 210.1 115.4 209.4 115.4 208.8 115.4 208.1 115.4 207.4 115.4 206.8 115.4 206.1 115.3 205.4 115.3 204.8 115.3 204.1 115.3 203.4 115.2 202.8 115.2 202.1 115.2 201.4 115.1 200.7 115.1 200.1 115.1 199.4 115.1 198.7 115 198.1 115 197.4 115 196.7 115 196 115 195.4 115.1 194.7 115.1 194 115.1 193.4 115.1 192.7 115.1 192 115.1 191.4 115.1 190.7 115.2 190 115.2 189.3 115.2 188.7 115.2 188 115.2 187.3 115.3 186.6 115.3 186 115.3 185.3 115.3 184.6 115.3 184 115.3 183.3 115.3 182.6 115.4 182 115.4 181.3 115.5 180.6 115.5 179.9 115.6 179.3 115.6 178.6 115.6 177.9 115.6 177.3 115.6 176.6 115.6 175.9 115.6 175.3 115.6 174.6 115.6 173.9 115.6 173.2 115.5 172.6 115.5 171.9 115.5 171.2 115.6 170.6 115.6 169.9 115.6 169.2 115.6 168.6 115.6 167.9 115.7 167.2 115.7 166.5 115.7 165.9 115.7 165.2 115.7 164.5 115.7 163.9 115.7 163.2 115.7 162.5 115.7 161.8 115.7 161.2 115.7 160.5 115.7 159.8 115.7 159.2 115.7 158.5 115.7 157.8 115.7 157.1 115.7 156.5 115.7 155.8 115.7 155.1 115.7 154.5 115.7 153.8 115.7 153.1 115.7 152.4 115.7 151.8 115.7 151.1 115.7 150.4 115.7 149.8 115.7 149.1 115.7 148.4 115.7 147.8 115.7 147.1 115.6 146.4 115.6 145.8 115.6 145.1 115.5 144.4 115.5 143.7 115.4 143.1 115.4 142.4 115.4 141.7 115.4 141.1 115.4 140.4 115.4 139.7 115.4 139 115.4 138.4 115.5 137.7 115.5 137 115.5 136.4 115.6 135.7 115.6 135 115.6 134.4 115.6 133.7 115.5 133 115.5 132.3 115.5 131.7 115.4 131 115.4 130.3 115.4 129.7 115.4 129 115.4 128.3 115.4 127.6 115.4 127 115.4 126.3 115.4 125.6 115.4 125 115.4 124.3 115.4 123.6 115.3 122.9 115.3 122.3 115.2 121.6 115.1 120.9 114.9 120.3 114.8 119.6 114.7 118.9 114.6 118.3 114.5 117.6 114.5 116.9 114.4 116.2 114.4 115.6 114.3 114.9 114.3 114.2 114.3 113.6 114.3 112.9 114.2 112.2 114.2 111.6 114.2 110.9 114.2 110.2 114.2 109.5 114.2 108.9 114.2 108.2 114.3 107.5 114.3 106.9 114.3 106.2 114.4 105.5 114.4 104.8 114.5 104.2 114.5 103.5 114.5 102.8 114.5 102.2 114.5 101.5 114.5 100.8 114.5 100.2 114.5 99.5 114.5 98.8 114.5 98.1 114.5 97.5 114.5 96.8 114.5 96.1 114.4 95.5 114.3 94.8 114.2 94.1 114.1 93.4 113.9 92.8 113.7 92.1 113.4 91.4 113.2 90.8 113 90.1 112.8 89.4 112.7 88.8 112.6 88.1 112.5 87.4 112.4 86.7 112.4 86.1 112.4 85.4 112.3 84.7 112.3 84.1 112.2 83.4 112.1 82.7 112 82 111.9 81.4 111.8 80.7 111.7 80 111.6 79.4 111.6 78.7 111.5 78 111.4 77.3 111.4 76.7 111.3 76 111.2 75.3 111 74.7 110.8 74 110.6 73.3 110.3 72.7 110 72 109.6 71.3 109.2 70.6 108.8 70 108.3 69.3 107.9 68.6 107.4 68 106.8 67.3 106.2 66.6 105.5 65.9 104.7 65.3 103.8 64.6 102.8 63.9 101.7 63.3 100.4 62.6 99 61.9 97.5 61.3 95.7 60.6 93.8 59.9 91.5 59.3 89.1 58.6 86.3 57.9 83.3 57.2 80.3 56.6 77.2 55.9 74.3 55.2 71.8 54.5 69.9 53.9 68.7 53.2 68.2 52.5 68.6 51.9 69.8 51.2 71.8 50.5 74.4 49.9 77.6 49.2 81.1 48.5 84.9 47.8 88.7 47.2 92.4 46.5 95.9 45.8 99.1 45.2 102.1 44.5 104.6 43.8 106.8 43.2 108.7 42.5 110.2 41.8 111.5 41.1 112.5 40.5 119 40.5 120 41.1 121.3 41.8 122.8 42.5 124.7 43.2 126.9 43.8 129.4 44.5 132.3 45.2 135.6 45.8 139.1 46.5 142.8 47.2 146.6 47.8 150.4 48.5 153.9 49.2 157.1 49.9 159.7 50.5 161.7 51.2 162.9 51.9 163.3 52.5 162.8 53.2 161.6 53.9 159.6 54.5 157.1 55.2 154.3 55.9 151.2 56.6 148.1 57.2 145.2 57.9 142.4 58.6 139.9 59.3 137.7 59.9 135.8 60.6 134 61.3 132.5 61.9 131.1 62.6 129.8 63.3 128.7 63.9 127.7 64.6 126.8 65.3 126 65.9 125.3 66.6 124.7 67.3 124.1 68 123.6 68.6 123.2 69.3 122.7 70 122.3 70.6 121.9 71.3 121.5 72 121.2 72.7 120.9 73.3 120.7 74 120.5 74.7 120.3 75.3 120.2 76 120.1 76.7 120.1 77.3 120 78 119.9 78.7 119.8 79.4 119.8 80 119.7 80.7 119.6 81.4 119.5 82 119.4 82.7 119.3 83.4 119.2 84.1 119.1 84.7 119.1 85.4 119.1 86.1 119 86.7 119 87.4 118.9 88.1 118.8 88.8 118.7 89.4 118.5 90.1 118.3 90.8 118 91.4 117.8 92.1 117.6 92.8 117.4 93.4 117.2 94.1 117.1 94.8 117.1 95.5 117 96.1 117 96.8 117 97.5 117 98.1 117 98.8 117 99.5 117 100.2 117 100.8 117 101.5 117 102.2 117 102.8 117 103.5 117 104.2 117.1 104.8 117.1 105.5 117.2 106.2 117.2 106.9 117.2 107.5 117.3 108.2 117.3 108.9 117.3 109.5 117.3 110.2 117.3 110.9 117.3 111.6 117.2 112.2 117.2 112.9 117.2 113.6 117.2 114.2 117.1 114.9 117.1 115.6 117.1 116.2 117 116.9 116.9 117.6 116.9 118.3 116.8 118.9 116.7 119.6 116.5 120.3 116.4 120.9 116.3 121.6 116.2 122.3 116.2 122.9 116.1 123.6 116.1 124.3 116.1 125 116.1 125.6 116.1 126.3 116.1 127 116.1 127.6 116.1 128.3 116.1 129 116.1 129.7 116.1 130.3 116.1 131 116 131.7 116 132.3 115.9 133 115.9 133.7 115.9 134.4 115.9 135 115.9 135.7 115.9 136.4 116 137 116 137.7 116 138.4 116.1 139 116.1 139.7 116.1 140.4 116.1 141.1 116.1 141.7 116.1 142.4 116 143.1 116 143.7 116 144.4 115.9 145.1 115.9 145.8 115.8 146.4 115.8 147.1 115.8 147.8 115.8 148.4 115.8 149.1 115.8 149.8 115.7 150.4 115.7 151.1 115.7 151.8 115.7 152.4 115.7 153.1 115.7 153.8 115.7 154.5 115.7 155.1 115.7 155.8 115.7 156.5 115.7 157.1 115.7 157.8 115.7 158.5 115.7 159.2 115.7 159.8 115.7 160.5 115.7 161.2 115.7 161.8 115.7 162.5 115.7 163.2 115.7 163.9 115.8 164.5 115.8 165.2 115.8 165.9 115.8 166.5 115.8 167.2 115.8 167.9 115.9 168.6 115.9 169.2 115.9 169.9 115.9 170.6 115.9 171.2 115.9 171.9 115.9 172.6 115.9 173.2 115.9 173.9 115.9 174.6 115.9 175.3 115.9 175.9 115.8 176.6 115.8 177.3 115.9 177.9 115.9 178.6 115.9 179.3 116 179.9 116 180.6 116.1 181.3 116.1 182 116.1 182.6 116.2 183.3 116.2 184 116.2 184.6 116.2 185.3 116.2 186 116.2 186.6 116.2 187.3 116.2 188 116.3 188.7 116.3 189.3 116.3 190 116.3 190.7 116.4 191.4 116.4 192 116.4 192.7 116.4 193.4 116.4 194 116.4 194.7 116.4 195.4 116.4 196 116.4 196.7 116.4 197.4 116.4 198.1 116.4 198.7 116.4 199.4 116.4 200.1 116.4 200.7 116.3 201.4 116.3 202.1 116.3 202.8 116.2 203.4 116.2 204.1 116.2 204.8 116.1 205.4 116.1 206.1 116.1 206.8 116.1 207.4 116.1 208.1 116 208.8 116 209.4 116 210.1 116 210.8 116.1 211.5 116.1 212.1 116.1 212.8 116.2 213.5 116.3 214.1 116.3 214.8 116.4 215.5 116.4 216.2 116.4 216.8 116.4 217.5 116.4 218.2 116.4 218.8 116.4 219.5 116.4 220.2 116.4 220.9 116.4 221.5 116.4 222.2 116.4 222.9 116.4 223.5 116.4 224.2 116.4 224.9 116.3 225.6 116.3 226.2 116.3 226.9 116.3 227.6 116.2 228.2 116.2 228.9 116.1 229.6 116.1 230.2 116 230.9 115.9 231.6 115.9 232.3 115.8 232.9 115.8 233.6 115.8 234.3 115.8 234.9 115.8 235.6 115.8 236.3 115.7 236.9 115.7 237.6 115.7 238.3 115.7 239 115.7 239.6 115.7 240.3 115.7 241 115.7 241.6 115.7 242.3 115.7 243 115.7 243.6 115.7 244.3 115.7 245 115.7 245.7 115.7 246.3 115.7 247 115.7 247.7 115.7 248.4 115.7 249 115.7 249.7 115.7 250.4 115.7 251 115.7 251.7 115.7 252.4 115.7 253 115.7 253.7 115.7 254.4 115.7 255.1 115.7 255.7 115.7 256.4 115.7 257.1 115.7 257.7 115.7 258.4 115.7 259.1 115.7 259.8 115.7 260.4 115.7 261.1 115.7 261.8 115.7 262.4 115.7 263.1 115.7 263.8 115.7 264.4 115.7 265.1 115.7 265.8 115.7 266.5 115.7 267.1 115.7 267.8 115.7 268.5 115.7 269.1 115.7 269.8 115.7 270.5 115.7 271.1 115.7 271.8 115.7 272.5 115.7 273.2 115.7 273.8 115.7 274.5 115.7 275.2 115.7 275.8 115.7 276.5 115.7 277.2 115.7 277.9 115.7 278.5 115.7 279.2 115.7 279.9 115.7 280.5 115.7 281.2 115.7 281.9 115.7 282.5 115.7 283.2 115.7 283.9 115.7 284.6 115.7 285.2 115.7 285.9 115.7 286.6 115.7 287.2 115.7 287.9 115.7 288.6 115.7 289.3 115.7 289.9 115.7 290.6 115.7 291.3 115.7 291.9 115.7 292.6 115.7 293.3 115.7 294 115.7 294.6 115.7 295.3 115.7 296 115.7 296.6 115.7 297.3 115.7 298 115.7 298.6 115.7 299.3 115.7 300 115.7 300.6 115.7 301.3 115.7 302 115.7 302.7 115.7 303.3 115.7 304 115.7 304.7 115.7 305.4 115.7 306 115.7 306.7 115.7 307.4 115.7 308 115.7 308.7 115.7 309.4 115.7 310 115.7 310.7 115.7 311.4 115.7 312 115.7 312.7 115.7 313.4 115.7 314.1 115.7 314.7 115.7 315.4 115.7 316.1 115.7 316.8 115.7 317.4 115.7 318.1 115.7 318.8 115.7 319.4 115.7 320.1 115.7 320.8 115.7 321.4 115.7 322.1 115.7 322.8 115.7 323.5 115.7 324.1 115.7 324.8 115.7 325.5 115.7 326.1 115.7 326.8 115.7 327.5 115.7 328.1 115.7 328.8 115.7 329.5 115.7 330.2 115.7 330.8 115.7 331.5 115.7 332.2 115.7 332.8 115.7 333.5 115.7 334.2 115.7 334.9 115.7 335.5 115.7 336.2 115.7 336.9 115.7 337.5 115.7 338.2 115.7 338.9 115.7 339.5 115.7 340.2 115.7 340.9 115.7 341.6 115.7 342.2 115.7 342.9 115.7 343.6 115.7 344.2 115.7 344.9 115.7 345.6 115.7 346.3 115.7 346.9 115.7 347.6 115.7 348.3 115.7 348.9 115.7 349.6 115.7 350.3 115.7 351 115.7 351.6 115.7 352.3 115.7 353 115.7 353.6 115.7 354.3 115.7 355 115.7 355.6 115.7 356.3 115.7 357 115.7 357.6 115.7 358.3 115.7 359 115.7 359.7 115.7 360.3 115.7 361 115.7 361.7 115.7 362.4 115.7 363 115.7 363.7 115.7 364.4 115.7 365 115.7 365.7 115.7 366.4 115.7 367 115.7 367.7 115.7 368.4 115.7 369 115.7 369.7 115.7 370.4 115.7 371.1 115.8 371.7 115.8 372.4 115.8 373.1 115.8 373.7 115.9 374.4 116 375.1 116.2 375.8 116.5 376.4 116.9 377.1 117.4 377.8 118.1 378.4 118.8 379.1 119.6 379.8 120.4 380.5 121.2 381.1 121.8 381.8 122.2 382.5 122.3 383.1 109.1 383.1"/>
            <polygon class="cls-7" points="207.6 383.1 207.6 382.5 207.7 381.8 207.9 381.1 208.1 380.5 208.4 379.8 208.7 379.1 209 378.5 209.3 377.8 209.6 377.1 209.8 376.4 210 375.8 210.2 375.1 210.4 374.4 210.5 373.8 210.6 373.1 210.7 372.4 210.7 371.8 210.8 371.1 210.8 370.4 210.8 369.8 210.8 369.1 210.8 368.4 210.8 367.8 210.8 367.1 210.8 366.4 210.8 365.7 210.8 365.1 210.8 364.4 210.8 363.7 210.8 363.1 210.8 362.4 210.8 361.7 210.8 361.1 210.8 360.4 210.8 359.7 210.8 359 210.8 358.4 210.8 357.7 210.8 357 210.8 356.4 210.8 355.7 210.8 355 210.8 354.4 210.8 353.7 210.8 353 210.8 352.4 210.8 351.7 210.8 351 210.8 350.4 210.8 349.7 210.8 349 210.8 348.4 210.8 347.7 210.8 347 210.8 346.3 210.8 345.7 210.8 345 210.8 344.3 210.8 343.7 210.8 343 210.8 342.3 210.8 341.7 210.8 341 210.8 340.3 210.8 339.6 210.8 339 210.8 338.3 210.8 337.6 210.8 337 210.8 336.3 210.8 335.6 210.8 335 210.8 334.3 210.8 333.6 210.8 333 210.8 332.3 210.8 331.6 210.8 331 210.8 330.3 210.8 329.6 210.8 328.9 210.8 328.3 210.8 327.6 210.8 326.9 210.8 326.3 210.8 325.6 210.8 324.9 210.8 324.3 210.8 323.6 210.8 322.9 210.8 322.3 210.8 321.6 210.8 320.9 210.8 320.3 210.8 319.6 210.8 318.9 210.8 318.2 210.8 317.6 210.8 316.9 210.8 316.2 210.8 315.6 210.8 314.9 210.8 314.2 210.8 313.6 210.8 312.9 210.8 312.2 210.8 311.5 210.8 310.9 210.8 310.2 210.8 309.5 210.8 308.9 210.8 308.2 210.8 307.5 210.8 306.9 210.8 306.2 210.8 305.5 210.8 304.9 210.8 304.2 210.8 303.5 210.8 302.9 210.8 302.2 210.8 301.5 210.8 300.9 210.8 300.2 210.8 299.5 210.8 298.8 210.8 298.2 210.8 297.5 210.8 296.8 210.8 296.2 210.8 295.5 210.8 294.8 210.8 294.2 210.8 293.5 210.8 292.8 210.8 292.1 210.8 291.5 210.8 290.8 210.8 290.1 210.8 289.5 210.8 288.8 210.8 288.1 210.8 287.5 210.8 286.8 210.8 286.1 210.8 285.5 210.8 284.8 210.8 284.1 210.8 283.5 210.8 282.8 210.8 282.1 210.8 281.5 210.8 280.8 210.8 280.1 210.8 279.4 210.8 278.8 210.8 278.1 210.8 277.4 210.8 276.8 210.8 276.1 210.8 275.4 210.8 274.8 210.8 274.1 210.8 273.4 210.8 272.8 210.8 272.1 210.8 271.4 210.8 270.7 210.8 270.1 210.8 269.4 210.8 268.7 210.8 268.1 210.8 267.4 210.8 266.7 210.8 266.1 210.8 265.4 210.8 264.7 210.8 264 210.8 263.4 210.8 262.7 210.8 262 210.8 261.4 210.8 260.7 210.8 260 210.8 259.4 210.8 258.7 210.8 258 210.8 257.4 210.8 256.7 210.8 256 210.8 255.4 210.8 254.7 210.8 254 210.8 253.4 210.8 252.7 210.8 252 210.8 251.3 210.8 250.7 210.8 250 210.8 249.3 210.8 248.7 210.8 248 210.8 247.3 210.8 246.7 210.8 246 210.8 245.3 210.8 244.6 210.8 244 210.8 243.3 210.8 242.6 210.8 242 210.8 241.3 210.8 240.6 210.8 240 210.8 239.3 210.8 238.6 210.8 238 210.8 237.3 210.8 236.6 210.8 236 210.8 235.3 210.8 234.6 210.8 233.9 210.8 233.3 210.8 232.6 210.8 231.9 210.8 231.3 210.8 230.6 210.8 229.9 210.8 229.3 210.7 228.6 210.7 227.9 210.7 227.3 210.7 226.6 210.7 225.9 210.6 225.3 210.6 224.6 210.6 223.9 210.6 223.2 210.6 222.6 210.5 221.9 210.5 221.2 210.5 220.6 210.5 219.9 210.5 219.2 210.5 218.6 210.4 217.9 210.4 217.2 210.3 216.6 210.3 215.9 210.2 215.2 210.2 214.6 210.1 213.9 210 213.2 210 212.5 209.9 211.9 209.9 211.2 209.8 210.5 209.8 209.9 209.8 209.2 209.8 208.5 209.9 207.9 209.9 207.2 210 206.5 210.1 205.9 210.1 205.2 210.2 204.5 210.3 203.8 210.4 203.2 210.4 202.5 210.5 201.8 210.5 201.2 210.6 200.5 210.6 199.8 210.6 199.2 210.6 198.5 210.6 197.8 210.6 197.1 210.6 196.5 210.5 195.8 210.5 195.1 210.4 194.5 210.4 193.8 210.3 193.1 210.3 192.5 210.3 191.8 210.2 191.1 210.2 190.5 210.2 189.8 210.2 189.1 210.2 188.5 210.3 187.8 210.3 187.1 210.3 186.4 210.4 185.8 210.4 185.1 210.5 184.4 210.5 183.8 210.6 183.1 210.6 182.4 210.7 181.8 210.7 181.1 210.7 180.4 210.8 179.8 210.8 179.1 210.8 178.4 210.8 177.8 210.8 177.1 210.8 176.4 210.8 175.8 210.8 175.1 210.8 174.4 210.8 173.7 210.8 173.1 210.8 172.4 210.8 171.7 210.8 171.1 210.8 170.4 210.8 169.7 210.8 169.1 210.8 168.4 210.8 167.7 210.8 167.1 210.8 166.4 210.8 165.7 210.8 165 210.8 164.4 210.8 163.7 210.8 163 210.8 162.4 210.8 161.7 210.8 161 210.8 160.4 210.8 159.7 210.8 159 210.8 158.4 210.8 157.7 210.8 157 210.8 156.4 210.8 155.7 210.8 155 210.8 154.3 210.8 153.7 210.8 153 210.8 152.3 210.8 151.7 210.8 151 210.8 150.3 210.8 149.7 210.8 149 210.8 148.3 210.8 147.6 210.8 147 210.8 146.3 210.8 145.6 210.8 145 210.8 144.3 210.8 143.6 210.8 143 210.8 142.3 210.8 141.6 210.7 141 210.7 140.3 210.7 139.6 210.7 138.9 210.7 138.3 210.6 137.6 210.6 136.9 210.6 136.3 210.6 135.6 210.6 134.9 210.6 134.3 210.6 133.6 210.6 132.9 210.6 132.3 210.7 131.6 210.7 130.9 210.7 130.3 210.7 129.6 210.7 128.9 210.7 128.3 210.7 127.6 210.7 126.9 210.7 126.2 210.7 125.6 210.6 124.9 210.6 124.2 210.6 123.6 210.5 122.9 210.5 122.2 210.4 121.6 210.4 120.9 210.3 120.2 210.3 119.6 210.2 118.9 210.2 118.2 210.2 117.6 210.1 116.9 210.1 116.2 210 115.5 210 114.9 210 114.2 209.9 113.5 209.9 112.9 209.9 112.2 209.9 111.5 209.9 110.9 209.9 110.2 209.9 109.5 209.9 108.8 209.9 108.2 209.8 107.5 209.8 106.8 209.8 106.2 209.8 105.5 209.7 104.8 209.7 104.2 209.6 103.5 209.5 102.8 209.5 102.2 209.4 101.5 209.3 100.8 209.2 100.2 209.1 99.5 209.1 98.8 209 98.1 208.8 97.5 208.7 96.8 208.6 96.1 208.5 95.5 208.3 94.8 208.2 94.1 208 93.5 207.8 92.8 207.6 92.1 207.4 91.4 207.3 90.8 207.1 90.1 206.9 89.4 206.6 88.8 206.4 88.1 206.2 87.4 206 86.8 205.8 86.1 205.6 85.4 205.4 84.8 205.2 84.1 205 83.4 204.8 82.8 204.6 82.1 204.4 81.4 204.2 80.8 203.9 80.1 203.6 79.4 203.3 78.7 203 78.1 202.6 77.4 202.2 76.7 201.7 76.1 201.2 75.4 200.7 74.7 200.1 74.1 199.5 73.4 198.9 72.7 198.3 72.1 197.7 71.4 197.1 70.7 196.5 70.1 196 69.4 195.4 68.7 194.9 68 194.4 67.4 193.9 66.7 193.4 66 193 65.4 192.6 64.7 192.1 64 191.7 63.4 191.2 62.7 190.7 62 190.2 61.3 189.5 60.7 188.8 60 188.1 59.3 187.2 58.7 186.3 58 185.4 57.3 184.5 56.7 183.6 56 182.8 55.3 182.1 54.7 181.4 54 180.9 53.3 180.6 52.7 180.5 52 180.6 51.3 180.9 50.7 181.4 50 182.2 49.3 183.2 48.6 184.5 48 185.9 47.3 187.6 46.6 189.4 46 191.3 45.3 193.3 44.6 195.2 44 197.2 43.3 199.1 42.6 200.8 42 202.4 41.3 219.2 41.3 220.8 42 222.6 42.6 224.5 43.3 226.4 44 228.4 44.6 230.4 45.3 232.3 46 234.1 46.6 235.7 47.3 237.2 48 238.4 48.6 239.4 49.3 240.2 50 240.8 50.7 241.1 51.3 241.2 52 241.1 52.7 240.7 53.3 240.2 54 239.6 54.7 238.9 55.3 238 56 237.1 56.7 236.2 57.3 235.3 58 234.4 58.7 233.6 59.3 232.8 60 232.1 60.7 231.5 61.3 230.9 62 230.4 62.7 230 63.4 229.5 64 229.1 64.7 228.7 65.4 228.2 66 227.8 66.7 227.3 67.4 226.8 68 226.3 68.7 225.7 69.4 225.1 70.1 224.5 70.7 223.9 71.4 223.3 72.1 222.7 72.7 222.1 73.4 221.5 74.1 221 74.7 220.5 75.4 220 76.1 219.5 76.7 219.1 77.4 218.7 78.1 218.3 78.7 218 79.4 217.8 80.1 217.5 80.8 217.3 81.4 217.1 82.1 216.8 82.8 216.6 83.4 216.5 84.1 216.3 84.8 216.1 85.4 215.8 86.1 215.6 86.8 215.4 87.4 215.2 88.1 215 88.8 214.8 89.4 214.6 90.1 214.4 90.8 214.2 91.4 214 92.1 213.9 92.8 213.7 93.5 213.5 94.1 213.4 94.8 213.2 95.5 213.1 96.1 212.9 96.8 212.8 97.5 212.7 98.1 212.6 98.8 212.5 99.5 212.4 100.2 212.3 100.8 212.3 101.5 212.2 102.2 212.1 102.8 212.1 103.5 212 104.2 212 104.8 211.9 105.5 211.9 106.2 211.8 106.8 211.8 107.5 211.8 108.2 211.8 108.8 211.8 109.5 211.8 110.2 211.8 110.9 211.8 111.5 211.8 112.2 211.8 112.9 211.7 113.5 211.7 114.2 211.7 114.9 211.6 115.5 211.6 116.2 211.6 116.9 211.5 117.6 211.5 118.2 211.4 118.9 211.4 119.6 211.3 120.2 211.3 120.9 211.2 121.6 211.2 122.2 211.1 122.9 211.1 123.6 211.1 124.2 211 124.9 211 125.6 211 126.2 211 126.9 211 127.6 211 128.3 211 128.9 211 129.6 211 130.3 211 130.9 211 131.6 211 132.3 211 132.9 211.1 133.6 211.1 134.3 211.1 134.9 211.1 135.6 211.1 136.3 211 136.9 211 137.6 211 138.3 211 138.9 211 139.6 210.9 140.3 210.9 141 210.9 141.6 210.9 142.3 210.9 143 210.9 143.6 210.9 144.3 210.9 145 210.8 145.6 210.8 146.3 210.8 147 210.8 147.6 210.8 148.3 210.8 149 210.8 149.7 210.8 150.3 210.8 151 210.8 151.7 210.8 152.3 210.8 153 210.8 153.7 210.8 154.3 210.8 155 210.8 155.7 210.8 156.4 210.8 157 210.8 157.7 210.8 158.4 210.8 159 210.8 159.7 210.8 160.4 210.8 161 210.8 161.7 210.8 162.4 210.8 163 210.8 163.7 210.8 164.4 210.8 165 210.8 165.7 210.8 166.4 210.8 167.1 210.8 167.7 210.8 168.4 210.8 169.1 210.8 169.7 210.8 170.4 210.8 171.1 210.8 171.7 210.8 172.4 210.8 173.1 210.8 173.7 210.8 174.4 210.8 175.1 210.8 175.8 210.8 176.4 210.8 177.1 210.9 177.8 210.9 178.4 210.9 179.1 210.9 179.8 210.9 180.4 211 181.1 211 181.8 211 182.4 211.1 183.1 211.1 183.8 211.2 184.4 211.2 185.1 211.3 185.8 211.3 186.4 211.4 187.1 211.4 187.8 211.4 188.5 211.5 189.1 211.5 189.8 211.5 190.5 211.4 191.1 211.4 191.8 211.4 192.5 211.3 193.1 211.3 193.8 211.2 194.5 211.2 195.1 211.2 195.8 211.1 196.5 211.1 197.1 211.1 197.8 211 198.5 211 199.2 211.1 199.8 211.1 200.5 211.1 201.2 211.2 201.8 211.2 202.5 211.3 203.2 211.4 203.8 211.4 204.5 211.5 205.2 211.6 205.9 211.7 206.5 211.7 207.2 211.8 207.9 211.8 208.5 211.8 209.2 211.8 209.9 211.8 210.5 211.8 211.2 211.8 211.9 211.7 212.5 211.6 213.2 211.6 213.9 211.5 214.6 211.4 215.2 211.4 215.9 211.3 216.6 211.3 217.2 211.2 217.9 211.2 218.6 211.2 219.2 211.2 219.9 211.1 220.6 211.1 221.2 211.1 221.9 211.1 222.6 211.1 223.2 211.1 223.9 211.1 224.6 211 225.3 211 225.9 211 226.6 211 227.3 210.9 227.9 210.9 228.6 210.9 229.3 210.9 229.9 210.9 230.6 210.9 231.3 210.9 231.9 210.8 232.6 210.8 233.3 210.8 233.9 210.8 234.6 210.8 235.3 210.8 236 210.8 236.6 210.8 237.3 210.8 238 210.8 238.6 210.8 239.3 210.8 240 210.8 240.6 210.8 241.3 210.8 242 210.8 242.6 210.8 243.3 210.8 244 210.8 244.6 210.8 245.3 210.8 246 210.8 246.7 210.8 247.3 210.8 248 210.8 248.7 210.8 249.3 210.8 250 210.8 250.7 210.8 251.3 210.8 252 210.8 252.7 210.8 253.4 210.8 254 210.8 254.7 210.8 255.4 210.8 256 210.8 256.7 210.8 257.4 210.8 258 210.8 258.7 210.8 259.4 210.8 260 210.8 260.7 210.8 261.4 210.8 262 210.8 262.7 210.8 263.4 210.8 264 210.8 264.7 210.8 265.4 210.8 266.1 210.8 266.7 210.8 267.4 210.8 268.1 210.8 268.7 210.8 269.4 210.8 270.1 210.8 270.7 210.8 271.4 210.8 272.1 210.8 272.8 210.8 273.4 210.8 274.1 210.8 274.8 210.8 275.4 210.8 276.1 210.8 276.8 210.8 277.4 210.8 278.1 210.8 278.8 210.8 279.4 210.8 280.1 210.8 280.8 210.8 281.5 210.8 282.1 210.8 282.8 210.8 283.5 210.8 284.1 210.8 284.8 210.8 285.5 210.8 286.1 210.8 286.8 210.8 287.5 210.8 288.1 210.8 288.8 210.8 289.5 210.8 290.1 210.8 290.8 210.8 291.5 210.8 292.1 210.8 292.8 210.8 293.5 210.8 294.2 210.8 294.8 210.8 295.5 210.8 296.2 210.8 296.8 210.8 297.5 210.8 298.2 210.8 298.8 210.8 299.5 210.8 300.2 210.8 300.9 210.8 301.5 210.8 302.2 210.8 302.9 210.8 303.5 210.8 304.2 210.8 304.9 210.8 305.5 210.8 306.2 210.8 306.9 210.8 307.5 210.8 308.2 210.8 308.9 210.8 309.5 210.8 310.2 210.8 310.9 210.8 311.5 210.8 312.2 210.8 312.9 210.8 313.6 210.8 314.2 210.8 314.9 210.8 315.6 210.8 316.2 210.8 316.9 210.8 317.6 210.8 318.2 210.8 318.9 210.8 319.6 210.8 320.3 210.8 320.9 210.8 321.6 210.8 322.3 210.8 322.9 210.8 323.6 210.8 324.3 210.8 324.9 210.8 325.6 210.8 326.3 210.8 326.9 210.8 327.6 210.8 328.3 210.8 328.9 210.8 329.6 210.8 330.3 210.8 331 210.8 331.6 210.8 332.3 210.8 333 210.8 333.6 210.8 334.3 210.8 335 210.8 335.6 210.8 336.3 210.8 337 210.8 337.6 210.8 338.3 210.8 339 210.8 339.6 210.8 340.3 210.8 341 210.8 341.7 210.8 342.3 210.8 343 210.8 343.7 210.8 344.3 210.8 345 210.8 345.7 210.8 346.3 210.8 347 210.8 347.7 210.8 348.4 210.8 349 210.8 349.7 210.8 350.4 210.8 351 210.8 351.7 210.8 352.4 210.8 353 210.8 353.7 210.8 354.4 210.8 355 210.8 355.7 210.8 356.4 210.8 357 210.8 357.7 210.8 358.4 210.8 359 210.8 359.7 210.8 360.4 210.8 361.1 210.8 361.7 210.8 362.4 210.8 363.1 210.8 363.7 210.8 364.4 210.8 365.1 210.8 365.7 210.8 366.4 210.8 367.1 210.8 367.8 210.8 368.4 210.9 369.1 210.9 369.8 210.9 370.4 210.9 371.1 210.9 371.8 211 372.4 211.1 373.1 211.2 373.8 211.3 374.4 211.4 375.1 211.6 375.8 211.8 376.4 212.1 377.1 212.4 377.8 212.7 378.5 213 379.1 213.3 379.8 213.5 380.5 213.8 381.1 214 381.8 214.1 382.5 214.1 383.1 207.6 383.1"/>
            <polygon class="cls-14" points="305 383.1 305 382.5 305.1 381.8 305.2 381.1 305.2 380.5 305.3 379.8 305.4 379.2 305.5 378.5 305.6 377.8 305.7 377.2 305.8 376.5 305.8 375.9 305.8 375.2 305.9 374.5 305.9 373.9 305.9 373.2 305.9 372.5 305.9 371.9 305.9 371.2 305.9 370.5 305.9 369.9 305.9 369.2 305.9 368.6 305.9 367.9 305.9 367.2 305.9 366.6 305.9 365.9 305.9 365.3 305.9 364.6 305.9 363.9 305.9 363.3 305.9 362.6 305.9 361.9 305.9 361.3 305.9 360.6 305.9 360 305.9 359.3 305.9 358.6 305.9 358 305.9 357.3 305.9 356.6 305.9 356 305.9 355.3 305.9 354.6 305.9 354 305.9 353.3 305.9 352.7 305.9 352 305.9 351.3 305.9 350.7 305.9 350 305.9 349.4 305.9 348.7 305.9 348 305.9 347.4 305.9 346.7 305.9 346 305.9 345.4 305.9 344.7 305.9 344 305.9 343.4 305.9 342.7 305.9 342.1 305.9 341.4 305.9 340.7 305.9 340.1 305.9 339.4 305.9 338.8 305.9 338.1 305.9 337.4 305.9 336.8 305.9 336.1 305.9 335.4 305.9 334.8 305.9 334.1 305.9 333.5 305.9 332.8 305.9 332.1 305.9 331.5 305.9 330.8 305.9 330.1 305.9 329.5 305.9 328.8 305.9 328.2 305.9 327.5 305.9 326.8 305.9 326.2 305.9 325.5 305.9 324.8 305.9 324.2 305.9 323.5 305.9 322.9 305.9 322.2 305.9 321.5 305.9 320.9 305.9 320.2 305.9 319.5 305.9 318.9 305.9 318.2 305.9 317.6 305.9 316.9 305.9 316.2 305.9 315.6 305.9 314.9 305.9 314.3 305.9 313.6 305.9 312.9 305.9 312.3 305.9 311.6 305.9 310.9 305.9 310.3 305.9 309.6 305.9 309 305.9 308.3 305.9 307.6 305.9 307 305.9 306.3 305.9 305.6 305.9 305 305.9 304.3 305.9 303.6 305.9 303 305.9 302.3 305.9 301.7 305.9 301 305.9 300.3 305.9 299.7 305.9 299 305.9 298.4 305.9 297.7 305.9 297 305.9 296.4 305.9 295.7 305.9 295 305.9 294.4 305.9 293.7 305.9 293 305.9 292.4 305.9 291.7 305.9 291.1 305.9 290.4 305.9 289.7 305.9 289.1 305.9 288.4 305.9 287.8 305.9 287.1 305.9 286.4 305.9 285.8 305.9 285.1 305.9 284.4 305.9 283.8 305.9 283.1 305.9 282.5 305.9 281.8 305.9 281.1 305.9 280.5 305.9 279.8 305.9 279.1 305.9 278.5 305.9 277.8 305.9 277.1 305.9 276.5 305.9 275.8 305.9 275.2 305.9 274.5 305.9 273.8 305.9 273.2 305.9 272.5 305.9 271.9 305.9 271.2 305.9 270.5 305.9 269.9 305.9 269.2 305.9 268.5 305.9 267.9 305.9 267.2 305.9 266.5 305.9 265.9 305.9 265.2 305.9 264.6 305.9 263.9 305.9 263.2 305.9 262.6 305.9 261.9 305.9 261.3 305.9 260.6 305.9 259.9 305.9 259.3 305.9 258.6 305.9 257.9 305.9 257.3 305.9 256.6 305.9 256 305.9 255.3 305.9 254.6 305.9 254 305.9 253.3 305.9 252.6 305.9 252 305.9 251.3 305.9 250.7 305.9 250 305.9 249.3 305.9 248.7 305.9 248 305.9 247.3 305.9 246.7 305.9 246 305.9 245.4 305.9 244.7 305.9 244 305.9 243.4 305.9 242.7 305.9 242.1 305.9 241.4 305.9 240.7 305.9 240.1 305.9 239.4 305.9 238.7 305.9 238.1 305.9 237.4 305.9 236.8 305.9 236.1 305.9 235.4 305.9 234.8 305.9 234.1 305.9 233.4 305.9 232.8 305.9 232.1 305.9 231.4 305.9 230.8 305.9 230.1 305.8 229.5 305.8 228.8 305.8 228.1 305.7 227.5 305.7 226.8 305.7 226.1 305.6 225.5 305.6 224.8 305.6 224.2 305.6 223.5 305.5 222.8 305.5 222.2 305.5 221.5 305.5 220.9 305.5 220.2 305.5 219.5 305.5 218.9 305.5 218.2 305.5 217.5 305.4 216.9 305.4 216.2 305.4 215.6 305.4 214.9 305.4 214.2 305.5 213.6 305.5 212.9 305.5 212.2 305.5 211.6 305.6 210.9 305.6 210.3 305.6 209.6 305.7 208.9 305.7 208.3 305.7 207.6 305.7 206.9 305.7 206.3 305.7 205.6 305.7 204.9 305.7 204.3 305.6 203.6 305.6 203 305.5 202.3 305.5 201.6 305.4 201 305.4 200.3 305.4 199.6 305.4 199 305.4 198.3 305.4 197.7 305.4 197 305.5 196.3 305.5 195.7 305.6 195 305.6 194.4 305.7 193.7 305.7 193 305.8 192.4 305.8 191.7 305.8 191 305.8 190.4 305.8 189.7 305.8 189.1 305.7 188.4 305.7 187.7 305.7 187.1 305.7 186.4 305.6 185.7 305.6 185.1 305.6 184.4 305.6 183.8 305.6 183.1 305.7 182.4 305.7 181.8 305.7 181.1 305.8 180.4 305.8 179.8 305.8 179.1 305.9 178.5 305.9 177.8 305.9 177.1 305.9 176.5 305.9 175.8 305.9 175.1 305.9 174.5 305.9 173.8 305.9 173.2 305.9 172.5 305.9 171.8 305.9 171.2 305.9 170.5 305.9 169.9 305.9 169.2 305.9 168.5 305.9 167.9 305.9 167.2 305.9 166.5 305.9 165.9 305.9 165.2 305.9 164.6 305.9 163.9 305.9 163.2 305.9 162.6 305.9 161.9 305.9 161.2 305.9 160.6 305.9 159.9 305.9 159.3 305.9 158.6 305.9 157.9 305.9 157.3 305.9 156.6 305.9 155.9 305.9 155.3 305.9 154.6 305.9 153.9 305.9 153.3 305.9 152.6 305.9 152 305.9 151.3 305.9 150.6 305.9 150 305.9 149.3 305.9 148.6 305.9 148 305.9 147.3 305.9 146.7 305.9 146 305.9 145.3 305.9 144.7 305.9 144 305.9 143.4 305.8 142.7 305.8 142 305.8 141.4 305.8 140.7 305.7 140 305.7 139.4 305.7 138.7 305.6 138.1 305.6 137.4 305.6 136.7 305.6 136.1 305.6 135.4 305.7 134.7 305.7 134.1 305.7 133.4 305.8 132.8 305.8 132.1 305.8 131.4 305.8 130.8 305.8 130.1 305.8 129.4 305.8 128.8 305.8 128.1 305.7 127.4 305.7 126.8 305.7 126.1 305.7 125.5 305.6 124.8 305.6 124.1 305.6 123.5 305.6 122.8 305.6 122.2 305.7 121.5 305.7 120.8 305.7 120.2 305.7 119.5 305.7 118.8 305.7 118.2 305.7 117.5 305.6 116.9 305.6 116.2 305.5 115.5 305.4 114.9 305.3 114.2 305.1 113.5 305 112.9 304.9 112.2 304.8 111.6 304.7 110.9 304.6 110.2 304.6 109.6 304.6 108.9 304.7 108.2 304.7 107.6 304.8 106.9 304.8 106.3 304.9 105.6 304.9 104.9 305 104.3 305 103.6 304.9 102.9 304.9 102.3 304.9 101.6 304.8 101 304.8 100.3 304.8 99.6 304.7 99 304.7 98.3 304.7 97.7 304.6 97 304.6 96.3 304.6 95.7 304.5 95 304.4 94.3 304.3 93.7 304.1 93 303.9 92.3 303.7 91.7 303.5 91 303.2 90.4 303 89.7 302.7 89 302.4 88.4 302.1 87.7 301.8 87.1 301.5 86.4 301.2 85.7 300.9 85.1 300.6 84.4 300.2 83.7 299.9 83.1 299.6 82.4 299.3 81.8 299 81.1 298.7 80.4 298.4 79.8 298.1 79.1 297.7 78.4 297.2 77.8 296.8 77.1 296.2 76.4 295.7 75.8 295.1 75.1 294.5 74.5 293.9 73.8 293.3 73.1 292.8 72.5 292.4 71.8 292 71.2 291.7 70.5 291.5 69.8 291.3 69.2 291.1 68.5 290.9 67.8 290.6 67.2 290.1 66.5 289.5 65.8 288.8 65.2 287.8 64.5 286.7 63.9 285.3 63.2 283.8 62.5 282.2 61.9 280.4 61.2 278.6 60.5 276.8 59.9 275 59.2 273.3 58.6 271.7 57.9 270.3 57.2 269 56.6 268 55.9 267.2 55.3 266.7 54.6 266.5 53.9 266.8 53.3 267.4 52.6 268.5 51.9 269.9 51.3 271.7 50.6 273.9 50 276.3 49.3 279 48.6 281.7 48 284.5 47.3 287.3 46.6 290 46 292.5 45.3 294.8 44.7 317 44.7 319.3 45.3 321.8 46 324.5 46.6 327.3 47.3 330.1 48 332.9 48.6 335.5 49.3 338 50 340.1 50.6 341.9 51.3 343.4 51.9 344.4 52.6 345.1 53.3 345.3 53.9 345.2 54.6 344.7 55.3 343.9 55.9 342.9 56.6 341.6 57.2 340.1 57.9 338.5 58.6 336.8 59.2 335 59.9 333.2 60.5 331.4 61.2 329.7 61.9 328 62.5 326.5 63.2 325.2 63.9 324 64.5 323.1 65.2 322.3 65.8 321.7 66.5 321.3 67.2 321 67.8 320.8 68.5 320.6 69.2 320.4 69.8 320.2 70.5 319.9 71.2 319.5 71.8 319 72.5 318.5 73.1 318 73.8 317.4 74.5 316.8 75.1 316.2 75.8 315.6 76.4 315.1 77.1 314.6 77.8 314.2 78.4 313.8 79.1 313.5 79.8 313.1 80.4 312.8 81.1 312.5 81.8 312.2 82.4 311.9 83.1 311.6 83.7 311.3 84.4 311 85.1 310.7 85.7 310.4 86.4 310 87.1 309.7 87.7 309.5 88.4 309.2 89 308.9 89.7 308.6 90.4 308.4 91 308.1 91.7 307.9 92.3 307.7 93 307.6 93.7 307.5 94.3 307.4 95 307.3 95.7 307.2 96.3 307.2 97 307.2 97.7 307.1 98.3 307.1 99 307.1 99.6 307 100.3 307 101 307 101.6 306.9 102.3 306.9 102.9 306.9 103.6 306.9 104.3 306.9 104.9 307 105.6 307 106.3 307.1 106.9 307.1 107.6 307.2 108.2 307.2 108.9 307.2 109.6 307.2 110.2 307.2 110.9 307.1 111.6 307 112.2 306.9 112.9 306.7 113.5 306.6 114.2 306.5 114.9 306.4 115.5 306.3 116.2 306.2 116.9 306.2 117.5 306.1 118.2 306.1 118.8 306.1 119.5 306.1 120.2 306.2 120.8 306.2 121.5 306.2 122.2 306.2 122.8 306.2 123.5 306.2 124.1 306.2 124.8 306.2 125.5 306.2 126.1 306.1 126.8 306.1 127.4 306.1 128.1 306.1 128.8 306 129.4 306 130.1 306 130.8 306.1 131.4 306.1 132.1 306.1 132.8 306.1 133.4 306.2 134.1 306.2 134.7 306.2 135.4 306.2 136.1 306.2 136.7 306.2 137.4 306.2 138.1 306.2 138.7 306.2 139.4 306.1 140 306.1 140.7 306.1 141.4 306 142 306 142.7 306 143.4 306 144 306 144.7 305.9 145.3 305.9 146 305.9 146.7 305.9 147.3 305.9 148 305.9 148.6 305.9 149.3 305.9 150 305.9 150.6 305.9 151.3 305.9 152 305.9 152.6 305.9 153.3 305.9 153.9 305.9 154.6 305.9 155.3 305.9 155.9 305.9 156.6 305.9 157.3 305.9 157.9 305.9 158.6 305.9 159.3 305.9 159.9 305.9 160.6 305.9 161.2 305.9 161.9 305.9 162.6 305.9 163.2 305.9 163.9 305.9 164.6 305.9 165.2 305.9 165.9 305.9 166.5 305.9 167.2 305.9 167.9 305.9 168.5 305.9 169.2 305.9 169.9 305.9 170.5 305.9 171.2 305.9 171.8 305.9 172.5 305.9 173.2 305.9 173.8 305.9 174.5 305.9 175.1 305.9 175.8 306 176.5 306 177.1 306 177.8 306 178.5 306 179.1 306.1 179.8 306.1 180.4 306.1 181.1 306.2 181.8 306.2 182.4 306.2 183.1 306.2 183.8 306.2 184.4 306.2 185.1 306.2 185.7 306.2 186.4 306.2 187.1 306.1 187.7 306.1 188.4 306.1 189.1 306.1 189.7 306.1 190.4 306.1 191 306.1 191.7 306.1 192.4 306.1 193 306.2 193.7 306.2 194.4 306.3 195 306.3 195.7 306.4 196.3 306.4 197 306.5 197.7 306.5 198.3 306.5 199 306.5 199.6 306.5 200.3 306.4 201 306.4 201.6 306.3 202.3 306.3 203 306.2 203.6 306.2 204.3 306.1 204.9 306.1 205.6 306.1 206.3 306.1 206.9 306.1 207.6 306.1 208.3 306.2 208.9 306.2 209.6 306.2 210.3 306.3 210.9 306.3 211.6 306.3 212.2 306.4 212.9 306.4 213.6 306.4 214.2 306.4 214.9 306.4 215.6 306.4 216.2 306.4 216.9 306.4 217.5 306.4 218.2 306.4 218.9 306.4 219.5 306.3 220.2 306.3 220.9 306.3 221.5 306.3 222.2 306.3 222.8 306.3 223.5 306.3 224.2 306.2 224.8 306.2 225.5 306.2 226.1 306.1 226.8 306.1 227.5 306.1 228.1 306 228.8 306 229.5 306 230.1 306 230.8 306 231.4 305.9 232.1 305.9 232.8 305.9 233.4 305.9 234.1 305.9 234.8 305.9 235.4 305.9 236.1 305.9 236.8 305.9 237.4 305.9 238.1 305.9 238.7 305.9 239.4 305.9 240.1 305.9 240.7 305.9 241.4 305.9 242.1 305.9 242.7 305.9 243.4 305.9 244 305.9 244.7 305.9 245.4 305.9 246 305.9 246.7 305.9 247.3 305.9 248 305.9 248.7 305.9 249.3 305.9 250 305.9 250.7 305.9 251.3 305.9 252 305.9 252.6 305.9 253.3 305.9 254 305.9 254.6 305.9 255.3 305.9 256 305.9 256.6 305.9 257.3 305.9 257.9 305.9 258.6 305.9 259.3 305.9 259.9 305.9 260.6 305.9 261.3 305.9 261.9 305.9 262.6 305.9 263.2 305.9 263.9 305.9 264.6 305.9 265.2 305.9 265.9 305.9 266.5 305.9 267.2 305.9 267.9 305.9 268.5 305.9 269.2 305.9 269.9 305.9 270.5 305.9 271.2 305.9 271.9 305.9 272.5 305.9 273.2 305.9 273.8 305.9 274.5 305.9 275.2 305.9 275.8 305.9 276.5 305.9 277.1 305.9 277.8 305.9 278.5 305.9 279.1 305.9 279.8 305.9 280.5 305.9 281.1 305.9 281.8 305.9 282.5 305.9 283.1 305.9 283.8 305.9 284.4 305.9 285.1 305.9 285.8 305.9 286.4 305.9 287.1 305.9 287.8 305.9 288.4 305.9 289.1 305.9 289.7 305.9 290.4 305.9 291.1 305.9 291.7 305.9 292.4 305.9 293 305.9 293.7 305.9 294.4 305.9 295 305.9 295.7 305.9 296.4 305.9 297 305.9 297.7 305.9 298.4 305.9 299 305.9 299.7 305.9 300.3 305.9 301 305.9 301.7 305.9 302.3 305.9 303 305.9 303.6 305.9 304.3 305.9 305 305.9 305.6 305.9 306.3 305.9 307 305.9 307.6 305.9 308.3 305.9 309 305.9 309.6 305.9 310.3 305.9 310.9 305.9 311.6 305.9 312.3 305.9 312.9 305.9 313.6 305.9 314.3 305.9 314.9 305.9 315.6 305.9 316.2 305.9 316.9 305.9 317.6 305.9 318.2 305.9 318.9 305.9 319.5 305.9 320.2 305.9 320.9 305.9 321.5 305.9 322.2 305.9 322.9 305.9 323.5 305.9 324.2 305.9 324.8 305.9 325.5 305.9 326.2 305.9 326.8 305.9 327.5 305.9 328.2 305.9 328.8 305.9 329.5 305.9 330.1 305.9 330.8 305.9 331.5 305.9 332.1 305.9 332.8 305.9 333.5 305.9 334.1 305.9 334.8 305.9 335.4 305.9 336.1 305.9 336.8 305.9 337.4 305.9 338.1 305.9 338.8 305.9 339.4 305.9 340.1 305.9 340.7 305.9 341.4 305.9 342.1 305.9 342.7 305.9 343.4 305.9 344 305.9 344.7 305.9 345.4 305.9 346 305.9 346.7 305.9 347.4 305.9 348 305.9 348.7 305.9 349.4 305.9 350 305.9 350.7 305.9 351.3 305.9 352 305.9 352.7 305.9 353.3 305.9 354 305.9 354.6 305.9 355.3 305.9 356 305.9 356.6 305.9 357.3 305.9 358 305.9 358.6 305.9 359.3 305.9 360 305.9 360.6 305.9 361.3 305.9 361.9 305.9 362.6 305.9 363.3 305.9 363.9 305.9 364.6 305.9 365.3 305.9 365.9 305.9 366.6 305.9 367.2 305.9 367.9 305.9 368.6 305.9 369.2 305.9 369.9 305.9 370.5 305.9 371.2 305.9 371.9 305.9 372.5 305.9 373.2 306 373.9 306 374.5 306 375.2 306 375.9 306.1 376.5 306.2 377.2 306.2 377.8 306.3 378.5 306.4 379.2 306.5 379.8 306.6 380.5 306.7 381.1 306.8 381.8 306.8 382.5 306.8 383.1 305 383.1"/>
            <line class="cls-3" x1="115.7" y1="51.3" x2="115.7" y2="40.5"/>
            <line class="cls-3" x1="115.7" y1="68.3" x2="115.7" y2="93.7"/>
            <polygon class="cls-9" points="111 51.3 111 68.3 120.5 68.3 120.5 51.3 111 51.3"/>
            <line class="cls-6" x1="111" y1="55.2" x2="120.5" y2="55.2"/>
            <line class="cls-3" x1="210.8" y1="51" x2="210.8" y2="41.3"/>
            <line class="cls-3" x1="210.8" y1="71.9" x2="210.8" y2="100.6"/>
            <polygon class="cls-15" points="206.1 51 206.1 71.9 215.6 71.9 215.6 51 206.1 51"/>
            <line class="cls-6" x1="206.1" y1="58.2" x2="215.6" y2="58.2"/>
            <line class="cls-3" x1="305.9" y1="52.5" x2="305.9" y2="44.7"/>
            <line class="cls-3" x1="305.9" y1="69.7" x2="305.9" y2="94.9"/>
            <polygon class="cls-12" points="301.2 52.5 301.2 69.7 310.7 69.7 310.7 52.5 301.2 52.5"/>
            <line class="cls-6" x1="301.2" y1="57.8" x2="310.7" y2="57.8"/>
          </g>
        </g>
        <g class="cls-22">
          <g>
            <line class="cls-4" x1="58.7" y1="400.3" x2="58.7" y2="23.3"/>
            <text class="cls-17" transform="translate(31.2 330.8)"><tspan x="0" y="0">1e-03</tspan></text>
            <text class="cls-17" transform="translate(31.2 219.9)"><tspan x="0" y="0">1e-01</tspan></text>
            <text class="cls-17" transform="translate(29 109)"><tspan x="0" y="0">1e+01</tspan></text>
            <line class="cls-5" x1="55.9" y1="327.7" x2="58.7" y2="327.7"/>
            <line class="cls-5" x1="55.9" y1="216.7" x2="58.7" y2="216.7"/>
            <line class="cls-5" x1="55.9" y1="105.8" x2="58.7" y2="105.8"/>
            <line class="cls-4" x1="58.7" y1="400.3" x2="363" y2="400.3"/>
            <line class="cls-5" x1="115.7" y1="403" x2="115.7" y2="400.3"/>
            <line class="cls-5" x1="210.8" y1="403" x2="210.8" y2="400.3"/>
            <line class="cls-5" x1="305.9" y1="403" x2="305.9" y2="400.3"/>
            <text class="cls-17" transform="translate(109.4 411.5)"><tspan x="0" y="0">CD</tspan></text>
            <text class="cls-17" transform="translate(196.2 411.5)"><tspan x="0" y="0">nonIBD</tspan></text>
            <text class="cls-17" transform="translate(299.6 411.5)"><tspan x="0" y="0">UC</tspan></text>
            <text class="cls-16" transform="translate(186.7 424.1)"><tspan x="0" y="0">Diagnosis</tspan></text>
            <text class="cls-16" transform="translate(23.8 233.2) rotate(-90)"><tspan x="0" y="0">log(cpm)</tspan></text>
            <polygon class="cls-24" points="353.1 172.8 437 172.5 437 251.1 353.1 251.4 353.1 172.8"/>
            <text class="cls-16" transform="translate(358.6 187.4)"><tspan x="0" y="0">diagnosis</tspan></text>
            <rect class="cls-24" x="358.6" y="194.1" width="17.3" height="17.3"/>
            <rect class="cls-11" x="359.3" y="194.8" width="15.9" height="15.9"/>
            <line class="cls-2" x1="367.2" y1="209.7" x2="367.2" y2="207.1"/>
            <line class="cls-2" x1="367.2" y1="198.4" x2="367.2" y2="195.8"/>
            <rect class="cls-9" x="360.7" y="198.4" width="13" height="8.6"/>
            <line class="cls-2" x1="360.7" y1="202.7" x2="373.7" y2="202.7"/>
            <rect class="cls-24" x="358.6" y="211.4" width="17.3" height="17.3"/>
            <rect class="cls-10" x="359.3" y="212.1" width="15.9" height="15.9"/>
            <line class="cls-2" x1="367.2" y1="226.9" x2="367.2" y2="224.3"/>
            <line class="cls-2" x1="367.2" y1="215.7" x2="367.2" y2="213.1"/>
            <rect class="cls-15" x="360.7" y="215.7" width="13" height="8.6"/>
            <line class="cls-2" x1="360.7" y1="220" x2="373.7" y2="220"/>
            <rect class="cls-24" x="358.6" y="228.7" width="17.3" height="17.3"/>
            <rect class="cls-8" x="359.3" y="229.4" width="15.9" height="15.9"/>
            <line class="cls-2" x1="367.2" y1="244.2" x2="367.2" y2="241.6"/>
            <line class="cls-2" x1="367.2" y1="233" x2="367.2" y2="230.4"/>
            <rect class="cls-12" x="360.7" y="233" width="13" height="8.6"/>
            <line class="cls-2" x1="360.7" y1="237.3" x2="373.7" y2="237.3"/>
            <text class="cls-18" transform="translate(381.3 205.9)"><tspan x="0" y="0">CD</tspan></text>
            <text class="cls-18" transform="translate(381.3 223.2)"><tspan x="0" y="0">nonIBD</tspan></text>
            <text class="cls-18" transform="translate(381.3 240.5)"><tspan x="0" y="0">UC</tspan></text>
          </g>
        </g>
      </g>
      <g>
        <g class="cls-21">
          <g>
            <rect class="cls-24" x="482.3" y="21.3" width="304.3" height="376.9"/>
            <polygon class="cls-13" points="521.9 381.1 521.9 380.5 521.9 379.9 521.9 379.4 522 378.8 522.1 378.3 522.1 377.7 522.2 377.1 522.3 376.6 522.4 376 522.5 375.5 522.7 374.9 522.8 374.3 523 373.8 523.1 373.2 523.3 372.7 523.5 372.1 523.7 371.5 523.9 371 524.1 370.4 524.3 369.9 524.5 369.3 524.8 368.7 525 368.2 525.3 367.6 525.5 367.1 525.8 366.5 526.1 365.9 526.3 365.4 526.6 364.8 526.9 364.3 527.2 363.7 527.4 363.1 527.7 362.6 528 362 528.3 361.5 528.6 360.9 528.9 360.3 529.2 359.8 529.5 359.2 529.7 358.7 530 358.1 530.3 357.5 530.6 357 530.9 356.4 531.2 355.9 531.4 355.3 531.7 354.7 532 354.2 532.2 353.6 532.5 353.1 532.8 352.5 533 351.9 533.2 351.4 533.5 350.8 533.7 350.3 534 349.7 534.2 349.1 534.4 348.6 534.6 348 534.8 347.5 535 346.9 535.2 346.3 535.4 345.8 535.6 345.2 535.8 344.7 535.9 344.1 536.1 343.6 536.3 343 536.4 342.4 536.6 341.9 536.7 341.3 536.9 340.8 537 340.2 537.1 339.6 537.2 339.1 537.4 338.5 537.5 338 537.6 337.4 537.7 336.8 537.8 336.3 537.9 335.7 538 335.2 538 334.6 538.1 334 538.2 333.5 538.3 332.9 538.3 332.4 538.4 331.8 538.5 331.2 538.5 330.7 538.6 330.1 538.6 329.6 538.7 329 538.7 328.4 538.8 327.9 538.8 327.3 538.9 326.8 538.9 326.2 538.9 325.6 539 325.1 539 324.5 539 324 539.1 323.4 539.1 322.8 539.1 322.3 539.1 321.7 539.1 321.2 539.2 320.6 539.2 320 539.2 319.5 539.2 318.9 539.2 318.4 539.2 317.8 539.3 317.2 539.3 316.7 539.3 316.1 539.3 315.6 539.3 315 539.3 314.4 539.3 313.9 539.3 313.3 539.3 312.8 539.3 312.2 539.3 311.6 539.3 311.1 539.3 310.5 539.3 310 539.4 309.4 539.4 308.8 539.4 308.3 539.4 307.7 539.4 307.2 539.4 306.6 539.4 306 539.4 305.5 539.4 304.9 539.4 304.4 539.4 303.8 539.4 303.2 539.4 302.7 539.4 302.1 539.4 301.6 539.4 301 539.4 300.4 539.4 299.9 539.4 299.3 539.4 298.8 539.4 298.2 539.4 297.6 539.4 297.1 539.4 296.5 539.4 296 539.4 295.4 539.4 294.8 539.4 294.3 539.4 293.7 539.4 293.2 539.4 292.6 539.4 292 539.4 291.5 539.4 290.9 539.4 290.4 539.4 289.8 539.4 289.2 539.4 288.7 539.4 288.1 539.4 287.6 539.4 287 539.4 286.4 539.4 285.9 539.4 285.3 539.4 284.8 539.4 284.2 539.4 283.7 539.4 283.1 539.4 282.5 539.4 282 539.4 281.4 539.4 280.9 539.4 280.3 539.4 279.7 539.4 279.2 539.4 278.6 539.4 278.1 539.4 277.5 539.4 276.9 539.4 276.4 539.4 275.8 539.4 275.3 539.4 274.7 539.4 274.1 539.4 273.6 539.4 273 539.4 272.5 539.4 271.9 539.4 271.3 539.4 270.8 539.4 270.2 539.4 269.7 539.4 269.1 539.4 268.5 539.4 268 539.4 267.4 539.4 266.9 539.4 266.3 539.4 265.7 539.4 265.2 539.4 264.6 539.4 264.1 539.4 263.5 539.4 262.9 539.4 262.4 539.4 261.8 539.4 261.3 539.4 260.7 539.4 260.1 539.4 259.6 539.4 259 539.4 258.5 539.4 257.9 539.4 257.3 539.4 256.8 539.4 256.2 539.4 255.7 539.4 255.1 539.4 254.5 539.4 254 539.4 253.4 539.4 252.9 539.4 252.3 539.4 251.7 539.4 251.2 539.4 250.6 539.4 250.1 539.4 249.5 539.4 248.9 539.4 248.4 539.4 247.8 539.4 247.3 539.4 246.7 539.4 246.1 539.4 245.6 539.4 245 539.4 244.5 539.4 243.9 539.4 243.3 539.4 242.8 539.4 242.2 539.4 241.7 539.4 241.1 539.4 240.5 539.4 240 539.4 239.4 539.4 238.9 539.3 238.3 539.3 237.7 539.3 237.2 539.3 236.6 539.3 236.1 539.3 235.5 539.3 234.9 539.3 234.4 539.3 233.8 539.3 233.3 539.3 232.7 539.3 232.1 539.3 231.6 539.3 231 539.3 230.5 539.3 229.9 539.3 229.3 539.3 228.8 539.3 228.2 539.3 227.7 539.3 227.1 539.3 226.5 539.3 226 539.2 225.4 539.2 224.9 539.2 224.3 539.2 223.8 539.2 223.2 539.2 222.6 539.2 222.1 539.2 221.5 539.2 221 539.2 220.4 539.2 219.8 539.2 219.3 539.1 218.7 539.1 218.2 539.1 217.6 539.1 217 539.1 216.5 539.1 215.9 539.1 215.4 539.1 214.8 539.1 214.2 539 213.7 539 213.1 539 212.6 539 212 539 211.4 539 210.9 539 210.3 539 209.8 538.9 209.2 538.9 208.6 538.9 208.1 538.9 207.5 538.9 207 538.9 206.4 538.8 205.8 538.8 205.3 538.8 204.7 538.8 204.2 538.8 203.6 538.8 203 538.8 202.5 538.7 201.9 538.7 201.4 538.7 200.8 538.7 200.2 538.7 199.7 538.7 199.1 538.6 198.6 538.6 198 538.6 197.4 538.6 196.9 538.6 196.3 538.6 195.8 538.5 195.2 538.5 194.6 538.5 194.1 538.5 193.5 538.5 193 538.5 192.4 538.5 191.8 538.4 191.3 538.4 190.7 538.4 190.2 538.4 189.6 538.4 189 538.4 188.5 538.4 187.9 538.3 187.4 538.3 186.8 538.3 186.2 538.3 185.7 538.3 185.1 538.3 184.6 538.3 184 538.3 183.4 538.3 182.9 538.3 182.3 538.2 181.8 538.2 181.2 538.2 180.6 538.2 180.1 538.2 179.5 538.2 179 538.2 178.4 538.2 177.8 538.2 177.3 538.2 176.7 538.2 176.2 538.2 175.6 538.2 175 538.2 174.5 538.2 173.9 538.2 173.4 538.2 172.8 538.2 172.2 538.2 171.7 538.2 171.1 538.2 170.6 538.2 170 538.2 169.4 538.2 168.9 538.2 168.3 538.2 167.8 538.2 167.2 538.2 166.7 538.2 166.1 538.2 165.5 538.2 165 538.2 164.4 538.2 163.9 538.2 163.3 538.2 162.7 538.2 162.2 538.2 161.6 538.2 161.1 538.2 160.5 538.2 159.9 538.2 159.4 538.2 158.8 538.2 158.3 538.2 157.7 538.2 157.1 538.2 156.6 538.3 156 538.3 155.5 538.3 154.9 538.3 154.3 538.3 153.8 538.3 153.2 538.3 152.7 538.3 152.1 538.3 151.5 538.3 151 538.3 150.4 538.3 149.9 538.3 149.3 538.3 148.7 538.3 148.2 538.4 147.6 538.4 147.1 538.4 146.5 538.4 145.9 538.4 145.4 538.4 144.8 538.4 144.3 538.4 143.7 538.4 143.1 538.4 142.6 538.4 142 538.4 141.5 538.4 140.9 538.4 140.3 538.5 139.8 538.5 139.2 538.5 138.7 538.5 138.1 538.5 137.5 538.5 137 538.5 136.4 538.5 135.9 538.5 135.3 538.5 134.7 538.5 134.2 538.5 133.6 538.5 133.1 538.5 132.5 538.5 131.9 538.6 131.4 538.6 130.8 538.6 130.3 538.6 129.7 538.6 129.1 538.6 128.6 538.6 128 538.6 127.5 538.6 126.9 538.6 126.3 538.6 125.8 538.6 125.2 538.6 124.7 538.6 124.1 538.7 123.5 538.7 123 538.7 122.4 538.7 121.9 538.7 121.3 538.7 120.7 538.7 120.2 538.7 119.6 538.7 119.1 538.7 118.5 538.7 117.9 538.7 117.4 538.7 116.8 538.7 116.3 538.8 115.7 538.8 115.1 538.8 114.6 538.8 114 538.8 113.5 538.8 112.9 538.8 112.3 538.8 111.8 538.8 111.2 538.8 110.7 538.8 110.1 538.8 109.5 538.9 109 538.9 108.4 538.9 107.9 538.9 107.3 538.9 106.8 538.9 106.2 538.9 105.6 538.9 105.1 538.9 104.5 538.9 104 538.9 103.4 538.9 102.8 539 102.3 539 101.7 539 101.2 539 100.6 539 100 539 99.5 539 98.9 539 98.4 539 97.8 539 97.2 539 96.7 539 96.1 539.1 95.6 539.1 95 539.7 95 539.7 95.6 539.7 96.1 539.7 96.7 539.8 97.2 539.8 97.8 539.8 98.4 539.8 98.9 539.8 99.5 539.8 100 539.8 100.6 539.8 101.2 539.8 101.7 539.8 102.3 539.8 102.8 539.8 103.4 539.9 104 539.9 104.5 539.9 105.1 539.9 105.6 539.9 106.2 539.9 106.8 539.9 107.3 539.9 107.9 539.9 108.4 539.9 109 539.9 109.5 539.9 110.1 540 110.7 540 111.2 540 111.8 540 112.3 540 112.9 540 113.5 540 114 540 114.6 540 115.1 540 115.7 540 116.3 540 116.8 540 117.4 540.1 117.9 540.1 118.5 540.1 119.1 540.1 119.6 540.1 120.2 540.1 120.7 540.1 121.3 540.1 121.9 540.1 122.4 540.1 123 540.1 123.5 540.1 124.1 540.1 124.7 540.2 125.2 540.2 125.8 540.2 126.3 540.2 126.9 540.2 127.5 540.2 128 540.2 128.6 540.2 129.1 540.2 129.7 540.2 130.3 540.2 130.8 540.2 131.4 540.2 131.9 540.2 132.5 540.2 133.1 540.3 133.6 540.3 134.2 540.3 134.7 540.3 135.3 540.3 135.9 540.3 136.4 540.3 137 540.3 137.5 540.3 138.1 540.3 138.7 540.3 139.2 540.3 139.8 540.3 140.3 540.3 140.9 540.3 141.5 540.4 142 540.4 142.6 540.4 143.1 540.4 143.7 540.4 144.3 540.4 144.8 540.4 145.4 540.4 145.9 540.4 146.5 540.4 147.1 540.4 147.6 540.4 148.2 540.4 148.7 540.4 149.3 540.5 149.9 540.5 150.4 540.5 151 540.5 151.5 540.5 152.1 540.5 152.7 540.5 153.2 540.5 153.8 540.5 154.3 540.5 154.9 540.5 155.5 540.5 156 540.5 156.6 540.5 157.1 540.5 157.7 540.6 158.3 540.6 158.8 540.6 159.4 540.6 159.9 540.6 160.5 540.6 161.1 540.6 161.6 540.6 162.2 540.6 162.7 540.6 163.3 540.6 163.9 540.6 164.4 540.6 165 540.6 165.5 540.6 166.1 540.6 166.7 540.6 167.2 540.6 167.8 540.6 168.3 540.6 168.9 540.6 169.4 540.6 170 540.6 170.6 540.6 171.1 540.6 171.7 540.6 172.2 540.6 172.8 540.6 173.4 540.6 173.9 540.6 174.5 540.6 175 540.6 175.6 540.6 176.2 540.6 176.7 540.6 177.3 540.6 177.8 540.6 178.4 540.6 179 540.6 179.5 540.6 180.1 540.6 180.6 540.5 181.2 540.5 181.8 540.5 182.3 540.5 182.9 540.5 183.4 540.5 184 540.5 184.6 540.5 185.1 540.5 185.7 540.5 186.2 540.4 186.8 540.4 187.4 540.4 187.9 540.4 188.5 540.4 189 540.4 189.6 540.4 190.2 540.4 190.7 540.3 191.3 540.3 191.8 540.3 192.4 540.3 193 540.3 193.5 540.3 194.1 540.3 194.6 540.2 195.2 540.2 195.8 540.2 196.3 540.2 196.9 540.2 197.4 540.2 198 540.1 198.6 540.1 199.1 540.1 199.7 540.1 200.2 540.1 200.8 540.1 201.4 540 201.9 540 202.5 540 203 540 203.6 540 204.2 540 204.7 539.9 205.3 539.9 205.8 539.9 206.4 539.9 207 539.9 207.5 539.9 208.1 539.9 208.6 539.8 209.2 539.8 209.8 539.8 210.3 539.8 210.9 539.8 211.4 539.8 212 539.8 212.6 539.7 213.1 539.7 213.7 539.7 214.2 539.7 214.8 539.7 215.4 539.7 215.9 539.7 216.5 539.7 217 539.7 217.6 539.6 218.2 539.6 218.7 539.6 219.3 539.6 219.8 539.6 220.4 539.6 221 539.6 221.5 539.6 222.1 539.6 222.6 539.6 223.2 539.6 223.8 539.5 224.3 539.5 224.9 539.5 225.4 539.5 226 539.5 226.5 539.5 227.1 539.5 227.7 539.5 228.2 539.5 228.8 539.5 229.3 539.5 229.9 539.5 230.5 539.5 231 539.5 231.6 539.5 232.1 539.5 232.7 539.5 233.3 539.5 233.8 539.5 234.4 539.4 234.9 539.4 235.5 539.4 236.1 539.4 236.6 539.4 237.2 539.4 237.7 539.4 238.3 539.4 238.9 539.4 239.4 539.4 240 539.4 240.5 539.4 241.1 539.4 241.7 539.4 242.2 539.4 242.8 539.4 243.3 539.4 243.9 539.4 244.5 539.4 245 539.4 245.6 539.4 246.1 539.4 246.7 539.4 247.3 539.4 247.8 539.4 248.4 539.4 248.9 539.4 249.5 539.4 250.1 539.4 250.6 539.4 251.2 539.4 251.7 539.4 252.3 539.4 252.9 539.4 253.4 539.4 254 539.4 254.5 539.4 255.1 539.4 255.7 539.4 256.2 539.4 256.8 539.4 257.3 539.4 257.9 539.4 258.5 539.4 259 539.4 259.6 539.4 260.1 539.4 260.7 539.4 261.3 539.4 261.8 539.4 262.4 539.4 262.9 539.4 263.5 539.4 264.1 539.4 264.6 539.4 265.2 539.4 265.7 539.4 266.3 539.4 266.9 539.4 267.4 539.4 268 539.4 268.5 539.4 269.1 539.4 269.7 539.4 270.2 539.4 270.8 539.4 271.3 539.4 271.9 539.4 272.5 539.4 273 539.4 273.6 539.4 274.1 539.4 274.7 539.4 275.3 539.4 275.8 539.4 276.4 539.4 276.9 539.4 277.5 539.4 278.1 539.4 278.6 539.4 279.2 539.4 279.7 539.4 280.3 539.4 280.9 539.4 281.4 539.4 282 539.4 282.5 539.4 283.1 539.4 283.7 539.4 284.2 539.4 284.8 539.4 285.3 539.4 285.9 539.4 286.4 539.4 287 539.4 287.6 539.4 288.1 539.4 288.7 539.4 289.2 539.4 289.8 539.4 290.4 539.4 290.9 539.4 291.5 539.4 292 539.4 292.6 539.4 293.2 539.4 293.7 539.4 294.3 539.4 294.8 539.4 295.4 539.4 296 539.4 296.5 539.4 297.1 539.4 297.6 539.4 298.2 539.4 298.8 539.4 299.3 539.4 299.9 539.4 300.4 539.4 301 539.4 301.6 539.4 302.1 539.4 302.7 539.4 303.2 539.4 303.8 539.4 304.4 539.4 304.9 539.4 305.5 539.4 306 539.4 306.6 539.4 307.2 539.4 307.7 539.4 308.3 539.4 308.8 539.4 309.4 539.4 310 539.4 310.5 539.4 311.1 539.4 311.6 539.5 312.2 539.5 312.8 539.5 313.3 539.5 313.9 539.5 314.4 539.5 315 539.5 315.6 539.5 316.1 539.5 316.7 539.5 317.2 539.5 317.8 539.6 318.4 539.6 318.9 539.6 319.5 539.6 320 539.6 320.6 539.6 321.2 539.7 321.7 539.7 322.3 539.7 322.8 539.7 323.4 539.8 324 539.8 324.5 539.8 325.1 539.8 325.6 539.9 326.2 539.9 326.8 540 327.3 540 327.9 540 328.4 540.1 329 540.1 329.6 540.2 330.1 540.2 330.7 540.3 331.2 540.4 331.8 540.4 332.4 540.5 332.9 540.6 333.5 540.7 334 540.7 334.6 540.8 335.2 540.9 335.7 541 336.3 541.1 336.8 541.2 337.4 541.3 338 541.4 338.5 541.5 339.1 541.7 339.6 541.8 340.2 541.9 340.8 542.1 341.3 542.2 341.9 542.4 342.4 542.5 343 542.7 343.6 542.8 344.1 543 344.7 543.2 345.2 543.4 345.8 543.6 346.3 543.8 346.9 544 347.5 544.2 348 544.4 348.6 544.6 349.1 544.8 349.7 545.1 350.3 545.3 350.8 545.5 351.4 545.8 351.9 546 352.5 546.3 353.1 546.5 353.6 546.8 354.2 547.1 354.7 547.3 355.3 547.6 355.9 547.9 356.4 548.2 357 548.5 357.5 548.7 358.1 549 358.7 549.3 359.2 549.6 359.8 549.9 360.3 550.2 360.9 550.5 361.5 550.8 362 551.1 362.6 551.3 363.1 551.6 363.7 551.9 364.3 552.2 364.8 552.5 365.4 552.7 365.9 553 366.5 553.3 367.1 553.5 367.6 553.8 368.2 554 368.7 554.2 369.3 554.5 369.9 554.7 370.4 554.9 371 555.1 371.5 555.3 372.1 555.5 372.7 555.7 373.2 555.8 373.8 556 374.3 556.1 374.9 556.3 375.5 556.4 376 556.5 376.6 556.6 377.1 556.7 377.7 556.7 378.3 556.8 378.8 556.8 379.4 556.9 379.9 556.9 380.5 556.9 381.1 521.9 381.1"/>
            <polygon class="cls-7" points="586.9 381.1 587 380.5 587.3 380 587.8 379.5 588.4 379 589.2 378.5 590.2 377.9 591.3 377.4 592.6 376.9 594 376.4 595.5 375.8 597.1 375.3 598.7 374.8 600.4 374.3 602.2 373.8 604 373.2 605.8 372.7 607.6 372.2 609.4 371.7 611.2 371.2 612.9 370.6 614.6 370.1 616.2 369.6 617.8 369.1 619.3 368.5 620.7 368 622 367.5 623.2 367 624.4 366.5 625.5 365.9 626.5 365.4 627.4 364.9 628.2 364.4 629 363.9 629.7 363.3 630.3 362.8 630.8 362.3 631.3 361.8 631.7 361.2 632.1 360.7 632.5 360.2 632.8 359.7 633 359.2 633.3 358.6 633.5 358.1 633.6 357.6 633.8 357.1 633.9 356.6 634 356 634.1 355.5 634.1 355 634.2 354.5 634.3 353.9 634.3 353.4 634.3 352.9 634.4 352.4 634.4 351.9 634.4 351.3 634.4 350.8 634.4 350.3 634.4 349.8 634.5 349.3 634.5 348.7 634.5 348.2 634.5 347.7 634.5 347.2 634.5 346.7 634.5 346.1 634.5 345.6 634.5 345.1 634.5 344.6 634.5 344 634.5 343.5 634.5 343 634.5 342.5 634.5 342 634.5 341.4 634.5 340.9 634.5 340.4 634.5 339.9 634.5 339.4 634.5 338.8 634.5 338.3 634.5 337.8 634.5 337.3 634.5 336.7 634.5 336.2 634.5 335.7 634.5 335.2 634.5 334.7 634.5 334.1 634.5 333.6 634.5 333.1 634.5 332.6 634.5 332.1 634.5 331.5 634.5 331 634.5 330.5 634.5 330 634.5 329.4 634.5 328.9 634.5 328.4 634.5 327.9 634.5 327.4 634.5 326.8 634.5 326.3 634.5 325.8 634.5 325.3 634.5 324.8 634.5 324.2 634.5 323.7 634.5 323.2 634.5 322.7 634.5 322.1 634.5 321.6 634.5 321.1 634.5 320.6 634.5 320.1 634.5 319.5 634.5 319 634.5 318.5 634.5 318 634.5 317.5 634.5 316.9 634.5 316.4 634.5 315.9 634.5 315.4 634.5 314.9 634.5 314.3 634.5 313.8 634.5 313.3 634.5 312.8 634.5 312.2 634.5 311.7 634.5 311.2 634.5 310.7 634.5 310.2 634.5 309.6 634.5 309.1 634.5 308.6 634.5 308.1 634.5 307.6 634.5 307 634.5 306.5 634.5 306 634.5 305.5 634.5 304.9 634.5 304.4 634.5 303.9 634.5 303.4 634.5 302.9 634.5 302.3 634.5 301.8 634.5 301.3 634.5 300.8 634.5 300.3 634.5 299.7 634.5 299.2 634.5 298.7 634.5 298.2 634.5 297.6 634.5 297.1 634.5 296.6 634.5 296.1 634.5 295.6 634.5 295 634.5 294.5 634.5 294 634.5 293.5 634.5 293 634.5 292.4 634.5 291.9 634.5 291.4 634.5 290.9 634.5 290.3 634.5 289.8 634.5 289.3 634.5 288.8 634.5 288.3 634.5 287.7 634.5 287.2 634.5 286.7 634.5 286.2 634.5 285.7 634.5 285.1 634.5 284.6 634.5 284.1 634.5 283.6 634.5 283 634.5 282.5 634.5 282 634.5 281.5 634.5 281 634.5 280.4 634.5 279.9 634.5 279.4 634.5 278.9 634.5 278.4 634.5 277.8 634.5 277.3 634.5 276.8 634.5 276.3 634.5 275.8 634.5 275.2 634.5 274.7 634.5 274.2 634.5 273.7 634.5 273.1 634.5 272.6 634.5 272.1 634.5 271.6 634.5 271.1 634.5 270.5 634.5 270 634.5 269.5 634.5 269 634.5 268.5 634.5 267.9 634.5 267.4 634.5 266.9 634.5 266.4 634.5 265.8 634.5 265.3 634.5 264.8 634.5 264.3 634.5 263.8 634.5 263.2 634.5 262.7 634.5 262.2 634.5 261.7 634.5 261.2 634.5 260.6 634.5 260.1 634.5 259.6 634.5 259.1 634.5 258.5 634.5 258 634.5 257.5 634.5 257 634.5 256.5 634.5 255.9 634.5 255.4 634.5 254.9 634.5 254.4 634.5 253.9 634.5 253.3 634.5 252.8 634.5 252.3 634.5 251.8 634.5 251.2 634.5 250.7 634.5 250.2 634.5 249.7 634.5 249.2 634.5 248.6 634.5 248.1 634.5 247.6 634.5 247.1 634.5 246.6 634.5 246 634.5 245.5 634.5 245 634.5 244.5 634.5 244 634.5 243.4 634.5 242.9 634.5 242.4 634.5 241.9 634.5 241.3 634.5 240.8 634.5 240.3 634.5 239.8 634.5 239.3 634.5 238.7 634.5 238.2 634.5 237.7 634.5 237.2 634.5 236.7 634.5 236.1 634.5 235.6 634.5 235.1 634.5 234.6 634.5 234 634.5 233.5 634.5 233 634.5 232.5 634.5 232 634.5 231.4 634.5 230.9 634.5 230.4 634.5 229.9 634.5 229.4 634.5 228.8 634.5 228.3 634.5 227.8 634.5 227.3 634.5 226.7 634.5 226.2 634.5 225.7 634.5 225.2 634.5 224.7 634.5 224.1 634.5 223.6 634.5 223.1 634.5 222.6 634.5 222.1 634.5 221.5 634.5 221 634.5 220.5 634.5 220 634.5 219.4 634.5 218.9 634.5 218.4 634.5 217.9 634.5 217.4 634.5 216.8 634.5 216.3 634.5 215.8 634.5 215.3 634.5 214.8 634.5 214.2 634.5 213.7 634.5 213.2 634.5 212.7 634.5 212.1 634.5 211.6 634.5 211.1 634.5 210.6 634.5 210.1 634.5 209.5 634.5 209 634.5 208.5 634.4 208 634.4 207.5 634.4 206.9 634.4 206.4 634.4 205.9 634.4 205.4 634.4 204.9 634.4 204.3 634.4 203.8 634.4 203.3 634.4 202.8 634.4 202.2 634.4 201.7 634.4 201.2 634.4 200.7 634.4 200.2 634.4 199.6 634.3 199.1 634.3 198.6 634.3 198.1 634.3 197.6 634.3 197 634.3 196.5 634.3 196 634.3 195.5 634.3 194.9 634.3 194.4 634.3 193.9 634.3 193.4 634.3 192.9 634.3 192.3 634.3 191.8 634.3 191.3 634.3 190.8 634.3 190.3 634.3 189.7 634.3 189.2 634.3 188.7 634.3 188.2 634.3 187.6 634.3 187.1 634.3 186.6 634.3 186.1 634.3 185.6 634.3 185 634.3 184.5 634.3 184 634.3 183.5 634.3 183 634.3 182.4 634.3 181.9 634.3 181.4 634.3 180.9 634.3 180.3 634.3 179.8 634.3 179.3 634.3 178.8 634.3 178.3 634.3 177.7 634.3 177.2 634.3 176.7 634.3 176.2 634.3 175.7 634.3 175.1 634.3 174.6 634.3 174.1 634.3 173.6 634.3 173.1 634.3 172.5 634.3 172 634.3 171.5 634.3 171 634.3 170.4 634.3 169.9 634.3 169.4 634.3 168.9 634.3 168.4 634.3 167.8 634.3 167.3 634.3 166.8 634.2 166.3 634.2 165.8 634.2 165.2 634.2 164.7 634.2 164.2 634.2 163.7 634.2 163.1 634.2 162.6 634.2 162.1 634.2 161.6 634.1 161.1 634.1 160.5 634.1 160 634.1 159.5 634.1 159 634.1 158.5 634.1 157.9 634.1 157.4 634.1 156.9 634.1 156.4 634.1 155.8 634 155.3 634 154.8 634 154.3 634 153.8 634 153.2 634 152.7 634 152.2 634 151.7 634 151.2 634 150.6 634 150.1 634 149.6 634 149.1 634 148.5 634 148 634 147.5 634 147 634 146.5 634 145.9 634 145.4 634.1 144.9 634.1 144.4 634.1 143.9 634.1 143.3 634.1 142.8 634.1 142.3 634.1 141.8 634.1 141.2 634.1 140.7 634.1 140.2 634.1 139.7 634.1 139.2 634.1 138.6 634.1 138.1 634.2 137.6 634.2 137.1 634.2 136.6 634.2 136 634.2 135.5 634.2 135 634.2 134.5 634.2 134 634.2 133.4 634.2 132.9 634.3 132.4 634.3 131.9 634.3 131.3 634.3 130.8 634.3 130.3 634.3 129.8 634.3 129.3 634.3 128.7 634.3 128.2 634.3 127.7 634.3 127.2 634.3 126.7 634.3 126.1 634.4 125.6 634.4 125.1 634.4 124.6 634.4 124 634.4 123.5 634.4 123 634.4 122.5 634.4 122 634.4 121.4 634.4 120.9 634.4 120.4 634.4 119.9 634.4 119.4 634.4 118.8 634.4 118.3 634.4 117.8 634.4 117.3 634.4 116.7 634.4 116.2 634.4 115.7 634.4 115.2 634.4 114.7 634.6 114.7 634.6 115.2 634.6 115.7 634.6 116.2 634.6 116.7 634.6 117.3 634.6 117.8 634.6 118.3 634.6 118.8 634.6 119.4 634.6 119.9 634.6 120.4 634.6 120.9 634.6 121.4 634.6 122 634.6 122.5 634.6 123 634.6 123.5 634.6 124 634.6 124.6 634.6 125.1 634.6 125.6 634.6 126.1 634.6 126.7 634.6 127.2 634.6 127.7 634.6 128.2 634.7 128.7 634.7 129.3 634.7 129.8 634.7 130.3 634.7 130.8 634.7 131.3 634.7 131.9 634.7 132.4 634.7 132.9 634.7 133.4 634.7 134 634.8 134.5 634.8 135 634.8 135.5 634.8 136 634.8 136.6 634.8 137.1 634.8 137.6 634.8 138.1 634.8 138.6 634.8 139.2 634.8 139.7 634.9 140.2 634.9 140.7 634.9 141.2 634.9 141.8 634.9 142.3 634.9 142.8 634.9 143.3 634.9 143.9 634.9 144.4 634.9 144.9 634.9 145.4 634.9 145.9 634.9 146.5 634.9 147 634.9 147.5 634.9 148 634.9 148.5 634.9 149.1 634.9 149.6 634.9 150.1 634.9 150.6 634.9 151.2 634.9 151.7 634.9 152.2 634.9 152.7 634.9 153.2 634.9 153.8 634.9 154.3 634.9 154.8 634.9 155.3 634.9 155.8 634.9 156.4 634.9 156.9 634.9 157.4 634.9 157.9 634.9 158.5 634.9 159 634.9 159.5 634.8 160 634.8 160.5 634.8 161.1 634.8 161.6 634.8 162.1 634.8 162.6 634.8 163.1 634.8 163.7 634.8 164.2 634.8 164.7 634.7 165.2 634.7 165.8 634.7 166.3 634.7 166.8 634.7 167.3 634.7 167.8 634.7 168.4 634.7 168.9 634.7 169.4 634.7 169.9 634.7 170.4 634.7 171 634.6 171.5 634.6 172 634.6 172.5 634.6 173.1 634.6 173.6 634.6 174.1 634.6 174.6 634.6 175.1 634.6 175.7 634.6 176.2 634.6 176.7 634.6 177.2 634.6 177.7 634.6 178.3 634.6 178.8 634.6 179.3 634.6 179.8 634.6 180.3 634.6 180.9 634.6 181.4 634.6 181.9 634.6 182.4 634.6 183 634.7 183.5 634.7 184 634.7 184.5 634.7 185 634.7 185.6 634.7 186.1 634.7 186.6 634.7 187.1 634.7 187.6 634.7 188.2 634.7 188.7 634.7 189.2 634.7 189.7 634.7 190.3 634.7 190.8 634.7 191.3 634.7 191.8 634.7 192.3 634.7 192.9 634.7 193.4 634.7 193.9 634.7 194.4 634.7 194.9 634.7 195.5 634.7 196 634.7 196.5 634.6 197 634.6 197.6 634.6 198.1 634.6 198.6 634.6 199.1 634.6 199.6 634.6 200.2 634.6 200.7 634.6 201.2 634.6 201.7 634.6 202.2 634.6 202.8 634.6 203.3 634.6 203.8 634.6 204.3 634.5 204.9 634.5 205.4 634.5 205.9 634.5 206.4 634.5 206.9 634.5 207.5 634.5 208 634.5 208.5 634.5 209 634.5 209.5 634.5 210.1 634.5 210.6 634.5 211.1 634.5 211.6 634.5 212.1 634.5 212.7 634.5 213.2 634.5 213.7 634.5 214.2 634.5 214.8 634.5 215.3 634.5 215.8 634.5 216.3 634.5 216.8 634.5 217.4 634.5 217.9 634.5 218.4 634.5 218.9 634.5 219.4 634.5 220 634.5 220.5 634.5 221 634.5 221.5 634.5 222.1 634.5 222.6 634.5 223.1 634.5 223.6 634.5 224.1 634.5 224.7 634.5 225.2 634.5 225.7 634.5 226.2 634.5 226.7 634.5 227.3 634.5 227.8 634.5 228.3 634.5 228.8 634.5 229.4 634.5 229.9 634.5 230.4 634.5 230.9 634.5 231.4 634.5 232 634.5 232.5 634.5 233 634.5 233.5 634.5 234 634.5 234.6 634.5 235.1 634.5 235.6 634.5 236.1 634.5 236.7 634.5 237.2 634.5 237.7 634.5 238.2 634.5 238.7 634.5 239.3 634.5 239.8 634.5 240.3 634.5 240.8 634.5 241.3 634.5 241.9 634.5 242.4 634.5 242.9 634.5 243.4 634.5 244 634.5 244.5 634.5 245 634.5 245.5 634.5 246 634.5 246.6 634.5 247.1 634.5 247.6 634.5 248.1 634.5 248.6 634.5 249.2 634.5 249.7 634.5 250.2 634.5 250.7 634.5 251.2 634.5 251.8 634.5 252.3 634.5 252.8 634.5 253.3 634.5 253.9 634.5 254.4 634.5 254.9 634.5 255.4 634.5 255.9 634.5 256.5 634.5 257 634.5 257.5 634.5 258 634.5 258.5 634.5 259.1 634.5 259.6 634.5 260.1 634.5 260.6 634.5 261.2 634.5 261.7 634.5 262.2 634.5 262.7 634.5 263.2 634.5 263.8 634.5 264.3 634.5 264.8 634.5 265.3 634.5 265.8 634.5 266.4 634.5 266.9 634.5 267.4 634.5 267.9 634.5 268.5 634.5 269 634.5 269.5 634.5 270 634.5 270.5 634.5 271.1 634.5 271.6 634.5 272.1 634.5 272.6 634.5 273.1 634.5 273.7 634.5 274.2 634.5 274.7 634.5 275.2 634.5 275.8 634.5 276.3 634.5 276.8 634.5 277.3 634.5 277.8 634.5 278.4 634.5 278.9 634.5 279.4 634.5 279.9 634.5 280.4 634.5 281 634.5 281.5 634.5 282 634.5 282.5 634.5 283 634.5 283.6 634.5 284.1 634.5 284.6 634.5 285.1 634.5 285.7 634.5 286.2 634.5 286.7 634.5 287.2 634.5 287.7 634.5 288.3 634.5 288.8 634.5 289.3 634.5 289.8 634.5 290.3 634.5 290.9 634.5 291.4 634.5 291.9 634.5 292.4 634.5 293 634.5 293.5 634.5 294 634.5 294.5 634.5 295 634.5 295.6 634.5 296.1 634.5 296.6 634.5 297.1 634.5 297.6 634.5 298.2 634.5 298.7 634.5 299.2 634.5 299.7 634.5 300.3 634.5 300.8 634.5 301.3 634.5 301.8 634.5 302.3 634.5 302.9 634.5 303.4 634.5 303.9 634.5 304.4 634.5 304.9 634.5 305.5 634.5 306 634.5 306.5 634.5 307 634.5 307.6 634.5 308.1 634.5 308.6 634.5 309.1 634.5 309.6 634.5 310.2 634.5 310.7 634.5 311.2 634.5 311.7 634.5 312.2 634.5 312.8 634.5 313.3 634.5 313.8 634.5 314.3 634.5 314.9 634.5 315.4 634.5 315.9 634.5 316.4 634.5 316.9 634.5 317.5 634.5 318 634.5 318.5 634.5 319 634.5 319.5 634.5 320.1 634.5 320.6 634.5 321.1 634.5 321.6 634.5 322.1 634.5 322.7 634.5 323.2 634.5 323.7 634.5 324.2 634.5 324.8 634.5 325.3 634.5 325.8 634.5 326.3 634.5 326.8 634.5 327.4 634.5 327.9 634.5 328.4 634.5 328.9 634.5 329.4 634.5 330 634.5 330.5 634.5 331 634.5 331.5 634.5 332.1 634.5 332.6 634.5 333.1 634.5 333.6 634.5 334.1 634.5 334.7 634.5 335.2 634.5 335.7 634.5 336.2 634.5 336.7 634.5 337.3 634.5 337.8 634.5 338.3 634.5 338.8 634.5 339.4 634.5 339.9 634.5 340.4 634.5 340.9 634.5 341.4 634.5 342 634.5 342.5 634.5 343 634.5 343.5 634.5 344 634.5 344.6 634.5 345.1 634.5 345.6 634.5 346.1 634.5 346.7 634.5 347.2 634.5 347.7 634.5 348.2 634.5 348.7 634.5 349.3 634.5 349.8 634.5 350.3 634.5 350.8 634.6 351.3 634.6 351.9 634.6 352.4 634.6 352.9 634.7 353.4 634.7 353.9 634.8 354.5 634.8 355 634.9 355.5 635 356 635.1 356.6 635.2 357.1 635.3 357.6 635.5 358.1 635.7 358.6 635.9 359.2 636.2 359.7 636.5 360.2 636.8 360.7 637.2 361.2 637.7 361.8 638.1 362.3 638.7 362.8 639.3 363.3 640 363.9 640.8 364.4 641.6 364.9 642.5 365.4 643.5 365.9 644.6 366.5 645.7 367 647 367.5 648.3 368 649.7 368.5 651.2 369.1 652.7 369.6 654.4 370.1 656 370.6 657.8 371.2 659.5 371.7 661.3 372.2 663.1 372.7 665 373.2 666.8 373.8 668.5 374.3 670.2 374.8 671.9 375.3 673.5 375.8 675 376.4 676.4 376.9 677.6 377.4 678.8 377.9 679.7 378.5 680.6 379 681.2 379.5 681.6 380 681.9 380.5 682 381.1 586.9 381.1"/>
            <polygon class="cls-14" points="703.3 381.1 703.3 380.4 703.4 379.7 703.5 379 703.7 378.4 703.9 377.7 704.2 377 704.6 376.4 704.9 375.7 705.4 375 705.8 374.4 706.4 373.7 706.9 373 707.5 372.3 708.1 371.7 708.7 371 709.4 370.3 710.1 369.7 710.8 369 711.5 368.3 712.2 367.6 712.9 367 713.6 366.3 714.4 365.6 715.1 365 715.8 364.3 716.5 363.6 717.2 363 717.9 362.3 718.6 361.6 719.2 360.9 719.9 360.3 720.5 359.6 721.1 358.9 721.6 358.3 722.2 357.6 722.7 356.9 723.2 356.2 723.7 355.6 724.1 354.9 724.6 354.2 725 353.6 725.3 352.9 725.7 352.2 726 351.6 726.3 350.9 726.6 350.2 726.9 349.5 727.2 348.9 727.4 348.2 727.6 347.5 727.8 346.9 728 346.2 728.1 345.5 728.3 344.8 728.4 344.2 728.6 343.5 728.7 342.8 728.8 342.2 728.9 341.5 728.9 340.8 729 340.2 729.1 339.5 729.1 338.8 729.2 338.1 729.2 337.5 729.3 336.8 729.3 336.1 729.4 335.5 729.4 334.8 729.4 334.1 729.4 333.4 729.5 332.8 729.5 332.1 729.5 331.4 729.5 330.8 729.5 330.1 729.5 329.4 729.5 328.8 729.5 328.1 729.5 327.4 729.5 326.7 729.6 326.1 729.6 325.4 729.6 324.7 729.6 324.1 729.6 323.4 729.6 322.7 729.6 322 729.6 321.4 729.6 320.7 729.6 320 729.6 319.4 729.6 318.7 729.6 318 729.6 317.4 729.6 316.7 729.6 316 729.6 315.3 729.6 314.7 729.6 314 729.6 313.3 729.6 312.7 729.6 312 729.6 311.3 729.6 310.6 729.6 310 729.6 309.3 729.6 308.6 729.6 308 729.6 307.3 729.6 306.6 729.6 306 729.6 305.3 729.6 304.6 729.6 303.9 729.6 303.3 729.6 302.6 729.6 301.9 729.6 301.3 729.6 300.6 729.6 299.9 729.6 299.2 729.6 298.6 729.6 297.9 729.6 297.2 729.6 296.6 729.6 295.9 729.6 295.2 729.6 294.6 729.6 293.9 729.6 293.2 729.6 292.5 729.6 291.9 729.6 291.2 729.6 290.5 729.6 289.9 729.6 289.2 729.6 288.5 729.6 287.8 729.6 287.2 729.6 286.5 729.6 285.8 729.6 285.2 729.6 284.5 729.6 283.8 729.6 283.2 729.6 282.5 729.6 281.8 729.6 281.1 729.6 280.5 729.6 279.8 729.6 279.1 729.6 278.5 729.6 277.8 729.6 277.1 729.6 276.4 729.6 275.8 729.6 275.1 729.6 274.4 729.6 273.8 729.6 273.1 729.6 272.4 729.6 271.8 729.6 271.1 729.6 270.4 729.6 269.7 729.6 269.1 729.6 268.4 729.6 267.7 729.6 267.1 729.6 266.4 729.6 265.7 729.6 265 729.6 264.4 729.6 263.7 729.6 263 729.6 262.4 729.6 261.7 729.6 261 729.6 260.4 729.6 259.7 729.6 259 729.6 258.3 729.6 257.7 729.6 257 729.6 256.3 729.6 255.7 729.6 255 729.6 254.3 729.6 253.6 729.6 253 729.6 252.3 729.6 251.6 729.6 251 729.6 250.3 729.6 249.6 729.6 249 729.6 248.3 729.6 247.6 729.6 246.9 729.6 246.3 729.6 245.6 729.6 244.9 729.6 244.3 729.6 243.6 729.6 242.9 729.6 242.2 729.6 241.6 729.6 240.9 729.6 240.2 729.6 239.6 729.6 238.9 729.6 238.2 729.6 237.6 729.5 236.9 729.5 236.2 729.5 235.5 729.5 234.9 729.5 234.2 729.5 233.5 729.5 232.9 729.5 232.2 729.5 231.5 729.5 230.8 729.5 230.2 729.5 229.5 729.5 228.8 729.5 228.2 729.5 227.5 729.5 226.8 729.5 226.2 729.5 225.5 729.5 224.8 729.5 224.1 729.5 223.5 729.5 222.8 729.5 222.1 729.5 221.5 729.5 220.8 729.5 220.1 729.5 219.4 729.4 218.8 729.4 218.1 729.4 217.4 729.4 216.8 729.4 216.1 729.4 215.4 729.4 214.8 729.4 214.1 729.4 213.4 729.4 212.7 729.4 212.1 729.4 211.4 729.4 210.7 729.4 210.1 729.4 209.4 729.4 208.7 729.4 208 729.4 207.4 729.4 206.7 729.4 206 729.4 205.4 729.4 204.7 729.4 204 729.4 203.4 729.4 202.7 729.4 202 729.4 201.3 729.4 200.7 729.4 200 729.4 199.3 729.4 198.7 729.4 198 729.3 197.3 729.3 196.6 729.3 196 729.3 195.3 729.3 194.6 729.3 194 729.3 193.3 729.3 192.6 729.3 192 729.3 191.3 729.3 190.6 729.3 189.9 729.3 189.3 729.3 188.6 729.3 187.9 729.3 187.3 729.2 186.6 729.2 185.9 729.2 185.2 729.2 184.6 729.2 183.9 729.2 183.2 729.2 182.6 729.2 181.9 729.2 181.2 729.2 180.6 729.2 179.9 729.2 179.2 729.2 178.5 729.2 177.9 729.1 177.2 729.1 176.5 729.1 175.9 729.1 175.2 729.1 174.5 729.1 173.9 729.1 173.2 729.1 172.5 729.1 171.8 729.1 171.2 729.1 170.5 729.1 169.8 729.1 169.2 729.2 168.5 729.2 167.8 729.2 167.1 729.2 166.5 729.2 165.8 729.2 165.1 729.2 164.5 729.2 163.8 729.2 163.1 729.2 162.5 729.2 161.8 729.2 161.1 729.2 160.4 729.2 159.8 729.3 159.1 729.3 158.4 729.3 157.8 729.3 157.1 729.3 156.4 729.3 155.7 729.3 155.1 729.3 154.4 729.3 153.7 729.3 153.1 729.3 152.4 729.3 151.7 729.3 151.1 729.3 150.4 729.4 149.7 729.4 149 729.4 148.4 729.4 147.7 729.4 147 729.4 146.4 729.4 145.7 729.4 145 729.4 144.3 729.4 143.7 729.4 143 729.4 142.3 729.4 141.7 729.4 141 729.4 140.3 729.4 139.7 729.4 139 729.4 138.3 729.3 137.6 729.3 137 729.3 136.3 729.3 135.6 729.3 135 729.3 134.3 729.3 133.6 729.3 132.9 729.3 132.3 729.3 131.6 729.3 130.9 729.3 130.3 729.3 129.6 729.3 128.9 729.3 128.3 729.3 127.6 729.3 126.9 729.3 126.2 729.3 125.6 729.3 124.9 729.3 124.2 729.3 123.6 729.3 122.9 729.3 122.2 729.3 121.5 729.3 120.9 729.3 120.2 729.3 119.5 729.3 118.9 729.3 118.2 729.3 117.5 729.3 116.9 729.3 116.2 729.4 115.5 729.4 114.8 729.4 114.2 729.4 113.5 729.4 112.8 729.4 112.2 729.4 111.5 729.4 110.8 729.4 110.1 729.4 109.5 729.4 108.8 729.4 108.1 729.4 107.5 729.4 106.8 729.4 106.1 729.4 105.5 729.4 104.8 729.5 104.1 729.5 103.4 729.5 102.8 729.5 102.1 729.5 101.4 729.5 100.8 729.5 100.1 729.5 99.4 729.5 98.7 729.5 98.1 729.5 97.4 729.5 96.7 729.5 96.1 729.5 95.4 729.5 94.7 729.5 94.1 729.5 93.4 729.5 92.7 729.5 92 729.5 91.4 729.5 90.7 729.5 90 729.5 89.4 729.6 88.7 729.6 88 729.6 87.3 729.6 86.7 729.6 86 729.6 85.3 729.6 84.7 729.6 84 729.6 83.3 729.6 82.7 729.6 82 729.6 81.3 729.6 80.6 729.6 80 729.6 79.3 729.6 78.6 729.6 78 729.6 77.3 729.6 76.6 729.6 75.9 729.6 75.3 729.6 74.6 729.6 73.9 729.6 73.3 729.6 72.6 729.6 71.9 729.6 71.3 729.6 70.6 729.6 69.9 729.6 69.2 729.6 68.6 729.6 67.9 729.6 67.2 729.6 66.6 729.5 65.9 729.5 65.2 729.5 64.5 729.5 63.9 729.5 63.2 729.5 62.5 729.5 61.9 729.5 61.2 729.5 60.5 729.5 59.9 729.5 59.2 729.5 58.5 729.5 57.8 729.5 57.2 729.5 56.5 729.5 55.8 729.5 55.2 729.5 54.5 729.5 53.8 729.5 53.1 729.5 52.5 729.5 51.8 729.5 51.1 729.5 50.5 729.5 49.8 729.5 49.1 729.5 48.5 729.5 47.8 729.5 47.1 729.4 46.4 729.4 45.8 729.4 45.1 729.4 44.4 729.4 43.8 729.4 43.1 729.4 42.4 729.4 41.7 729.4 41.1 729.4 40.4 729.4 39.7 729.4 39.1 729.4 38.4 729.7 38.4 729.7 39.1 729.7 39.7 729.7 40.4 729.7 41.1 729.7 41.7 729.7 42.4 729.7 43.1 729.7 43.8 729.7 44.4 729.7 45.1 729.7 45.8 729.7 46.4 729.7 47.1 729.7 47.8 729.7 48.5 729.7 49.1 729.7 49.8 729.7 50.5 729.7 51.1 729.7 51.8 729.7 52.5 729.7 53.1 729.7 53.8 729.7 54.5 729.7 55.2 729.6 55.8 729.6 56.5 729.6 57.2 729.6 57.8 729.6 58.5 729.6 59.2 729.6 59.9 729.6 60.5 729.6 61.2 729.6 61.9 729.6 62.5 729.6 63.2 729.6 63.9 729.6 64.5 729.6 65.2 729.6 65.9 729.6 66.6 729.6 67.2 729.6 67.9 729.6 68.6 729.6 69.2 729.6 69.9 729.6 70.6 729.6 71.3 729.6 71.9 729.6 72.6 729.6 73.3 729.6 73.9 729.6 74.6 729.6 75.3 729.6 75.9 729.6 76.6 729.6 77.3 729.6 78 729.6 78.6 729.6 79.3 729.6 80 729.6 80.6 729.6 81.3 729.6 82 729.6 82.7 729.6 83.3 729.6 84 729.6 84.7 729.6 85.3 729.6 86 729.6 86.7 729.6 87.3 729.6 88 729.6 88.7 729.6 89.4 729.6 90 729.6 90.7 729.6 91.4 729.6 92 729.6 92.7 729.6 93.4 729.6 94.1 729.6 94.7 729.6 95.4 729.6 96.1 729.6 96.7 729.6 97.4 729.6 98.1 729.7 98.7 729.7 99.4 729.7 100.1 729.7 100.8 729.7 101.4 729.7 102.1 729.7 102.8 729.7 103.4 729.7 104.1 729.7 104.8 729.7 105.5 729.7 106.1 729.7 106.8 729.7 107.5 729.7 108.1 729.7 108.8 729.7 109.5 729.8 110.1 729.8 110.8 729.8 111.5 729.8 112.2 729.8 112.8 729.8 113.5 729.8 114.2 729.8 114.8 729.8 115.5 729.8 116.2 729.8 116.9 729.8 117.5 729.8 118.2 729.8 118.9 729.8 119.5 729.8 120.2 729.8 120.9 729.8 121.5 729.8 122.2 729.8 122.9 729.8 123.6 729.8 124.2 729.8 124.9 729.8 125.6 729.8 126.2 729.8 126.9 729.8 127.6 729.8 128.3 729.8 128.9 729.8 129.6 729.8 130.3 729.8 130.9 729.8 131.6 729.8 132.3 729.8 132.9 729.8 133.6 729.8 134.3 729.8 135 729.8 135.6 729.8 136.3 729.8 137 729.8 137.6 729.8 138.3 729.8 139 729.8 139.7 729.8 140.3 729.8 141 729.8 141.7 729.8 142.3 729.8 143 729.8 143.7 729.8 144.3 729.8 145 729.8 145.7 729.8 146.4 729.8 147 729.8 147.7 729.8 148.4 729.8 149 729.8 149.7 729.8 150.4 729.8 151.1 729.8 151.7 729.8 152.4 729.8 153.1 729.8 153.7 729.8 154.4 729.8 155.1 729.9 155.7 729.9 156.4 729.9 157.1 729.9 157.8 729.9 158.4 729.9 159.1 729.9 159.8 729.9 160.4 729.9 161.1 729.9 161.8 729.9 162.5 729.9 163.1 730 163.8 730 164.5 730 165.1 730 165.8 730 166.5 730 167.1 730 167.8 730 168.5 730 169.2 730 169.8 730 170.5 730 171.2 730 171.8 730 172.5 730 173.2 730 173.9 730 174.5 730 175.2 730 175.9 730 176.5 730 177.2 730 177.9 730 178.5 730 179.2 730 179.9 730 180.6 730 181.2 730 181.9 730 182.6 729.9 183.2 729.9 183.9 729.9 184.6 729.9 185.2 729.9 185.9 729.9 186.6 729.9 187.3 729.9 187.9 729.9 188.6 729.9 189.3 729.9 189.9 729.9 190.6 729.9 191.3 729.8 192 729.8 192.6 729.8 193.3 729.8 194 729.8 194.6 729.8 195.3 729.8 196 729.8 196.6 729.8 197.3 729.8 198 729.8 198.7 729.8 199.3 729.8 200 729.8 200.7 729.8 201.3 729.8 202 729.8 202.7 729.8 203.4 729.8 204 729.8 204.7 729.8 205.4 729.8 206 729.8 206.7 729.8 207.4 729.8 208 729.8 208.7 729.8 209.4 729.7 210.1 729.7 210.7 729.7 211.4 729.7 212.1 729.7 212.7 729.7 213.4 729.7 214.1 729.7 214.8 729.7 215.4 729.7 216.1 729.7 216.8 729.7 217.4 729.7 218.1 729.7 218.8 729.7 219.4 729.7 220.1 729.7 220.8 729.7 221.5 729.7 222.1 729.7 222.8 729.7 223.5 729.7 224.1 729.7 224.8 729.7 225.5 729.7 226.2 729.6 226.8 729.6 227.5 729.6 228.2 729.6 228.8 729.6 229.5 729.6 230.2 729.6 230.8 729.6 231.5 729.6 232.2 729.6 232.9 729.6 233.5 729.6 234.2 729.6 234.9 729.6 235.5 729.6 236.2 729.6 236.9 729.6 237.6 729.6 238.2 729.6 238.9 729.6 239.6 729.6 240.2 729.6 240.9 729.6 241.6 729.6 242.2 729.6 242.9 729.6 243.6 729.6 244.3 729.6 244.9 729.6 245.6 729.6 246.3 729.6 246.9 729.6 247.6 729.6 248.3 729.6 249 729.6 249.6 729.6 250.3 729.6 251 729.6 251.6 729.6 252.3 729.6 253 729.6 253.6 729.6 254.3 729.6 255 729.6 255.7 729.6 256.3 729.6 257 729.6 257.7 729.6 258.3 729.6 259 729.6 259.7 729.6 260.4 729.6 261 729.6 261.7 729.6 262.4 729.6 263 729.6 263.7 729.6 264.4 729.6 265 729.6 265.7 729.6 266.4 729.6 267.1 729.6 267.7 729.6 268.4 729.6 269.1 729.6 269.7 729.6 270.4 729.6 271.1 729.6 271.8 729.6 272.4 729.6 273.1 729.6 273.8 729.6 274.4 729.6 275.1 729.6 275.8 729.6 276.4 729.6 277.1 729.6 277.8 729.6 278.5 729.6 279.1 729.6 279.8 729.6 280.5 729.6 281.1 729.6 281.8 729.6 282.5 729.6 283.2 729.6 283.8 729.6 284.5 729.6 285.2 729.6 285.8 729.6 286.5 729.6 287.2 729.6 287.8 729.6 288.5 729.6 289.2 729.6 289.9 729.6 290.5 729.6 291.2 729.6 291.9 729.6 292.5 729.6 293.2 729.6 293.9 729.6 294.6 729.6 295.2 729.6 295.9 729.6 296.6 729.6 297.2 729.6 297.9 729.6 298.6 729.6 299.2 729.6 299.9 729.6 300.6 729.6 301.3 729.6 301.9 729.6 302.6 729.6 303.3 729.6 303.9 729.6 304.6 729.6 305.3 729.6 306 729.6 306.6 729.6 307.3 729.6 308 729.6 308.6 729.6 309.3 729.6 310 729.6 310.6 729.6 311.3 729.6 312 729.6 312.7 729.6 313.3 729.6 314 729.6 314.7 729.6 315.3 729.6 316 729.6 316.7 729.6 317.4 729.6 318 729.6 318.7 729.6 319.4 729.6 320 729.6 320.7 729.6 321.4 729.6 322 729.6 322.7 729.6 323.4 729.6 324.1 729.6 324.7 729.6 325.4 729.6 326.1 729.6 326.7 729.6 327.4 729.6 328.1 729.6 328.8 729.6 329.4 729.6 330.1 729.7 330.8 729.7 331.4 729.7 332.1 729.7 332.8 729.7 333.4 729.7 334.1 729.8 334.8 729.8 335.5 729.8 336.1 729.9 336.8 729.9 337.5 730 338.1 730 338.8 730.1 339.5 730.1 340.2 730.2 340.8 730.3 341.5 730.4 342.2 730.5 342.8 730.6 343.5 730.7 344.2 730.9 344.8 731 345.5 731.2 346.2 731.4 346.9 731.6 347.5 731.8 348.2 732 348.9 732.2 349.5 732.5 350.2 732.8 350.9 733.1 351.6 733.5 352.2 733.8 352.9 734.2 353.6 734.6 354.2 735 354.9 735.5 355.6 735.9 356.2 736.4 356.9 737 357.6 737.5 358.3 738.1 358.9 738.7 359.6 739.3 360.3 739.9 360.9 740.6 361.6 741.3 362.3 741.9 363 742.6 363.6 743.3 364.3 744.1 365 744.8 365.6 745.5 366.3 746.2 367 747 367.6 747.7 368.3 748.4 369 749.1 369.7 749.8 370.3 750.4 371 751.1 371.7 751.7 372.3 752.2 373 752.8 373.7 753.3 374.4 753.8 375 754.2 375.7 754.6 376.4 754.9 377 755.2 377.7 755.5 378.4 755.6 379 755.8 379.7 755.9 380.4 755.9 381.1 703.3 381.1"/>
            <line class="cls-3" x1="539.4" y1="381.1" x2="539.4" y2="381.1"/>
            <line class="cls-3" x1="539.4" y1="381.1" x2="539.4" y2="381.1"/>
            <polygon class="cls-9" points="534.6 381.1 534.6 381.1 544.1 381.1 544.1 381.1 534.6 381.1"/>
            <line class="cls-6" x1="534.6" y1="381.1" x2="544.1" y2="381.1"/>
            <line class="cls-3" x1="634.5" y1="381.1" x2="634.5" y2="381.1"/>
            <line class="cls-3" x1="634.5" y1="381.1" x2="634.5" y2="381.1"/>
            <polygon class="cls-15" points="629.7 381.1 629.7 381.1 639.2 381.1 639.2 381.1 629.7 381.1"/>
            <line class="cls-6" x1="629.7" y1="381.1" x2="639.2" y2="381.1"/>
            <line class="cls-3" x1="729.6" y1="381.1" x2="729.6" y2="381.1"/>
            <line class="cls-3" x1="729.6" y1="381.1" x2="729.6" y2="381.1"/>
            <polygon class="cls-12" points="724.8 381.1 724.8 381.1 734.3 381.1 734.3 381.1 724.8 381.1"/>
            <line class="cls-6" x1="724.8" y1="381.1" x2="734.3" y2="381.1"/>
          </g>
        </g>
        <g class="cls-23">
          <g>
            <line class="cls-4" x1="482.3" y1="398.2" x2="482.3" y2="21.3"/>
            <text class="cls-17" transform="translate(454.9 320.9)"><tspan x="0" y="0">1e-03</tspan></text>
            <text class="cls-17" transform="translate(454.9 194.3)"><tspan x="0" y="0">1e-01</tspan></text>
            <text class="cls-17" transform="translate(452.7 67.7)"><tspan x="0" y="0">1e+01</tspan></text>
            <line class="cls-5" x1="479.6" y1="317.8" x2="482.3" y2="317.8"/>
            <line class="cls-5" x1="479.6" y1="191.2" x2="482.3" y2="191.2"/>
            <line class="cls-5" x1="479.6" y1="64.5" x2="482.3" y2="64.5"/>
            <line class="cls-4" x1="482.3" y1="398.2" x2="786.6" y2="398.2"/>
            <line class="cls-5" x1="539.4" y1="400.9" x2="539.4" y2="398.2"/>
            <line class="cls-5" x1="634.5" y1="400.9" x2="634.5" y2="398.2"/>
            <line class="cls-5" x1="729.6" y1="400.9" x2="729.6" y2="398.2"/>
            <text class="cls-17" transform="translate(533 409.4)"><tspan x="0" y="0">CD</tspan></text>
            <text class="cls-17" transform="translate(619.8 409.4)"><tspan x="0" y="0">nonIBD</tspan></text>
            <text class="cls-17" transform="translate(723.2 409.4)"><tspan x="0" y="0">UC</tspan></text>
            <text class="cls-16" transform="translate(610.3 422)"><tspan x="0" y="0">Diagnosis</tspan></text>
          </g>
        </g>
        <text class="cls-16" transform="translate(449.7 216.1) rotate(-90)"><tspan x="0" y="0">log(cpm)</tspan></text>
        <text class="cls-19" transform="translate(22 26.5)"><tspan x="0" y="0">A</tspan></text>
      </g>
      <text class="cls-19" transform="translate(357.4 29.2)"><tspan x="0" y="0">B</tspan></text>
    </g>
  </g>
</svg>